<svg width="88" height="54" viewBox="0 0 88 54" fill="none" xmlns="http://www.w3.org/2000/svg">
<path d="M22 18.0148C24.9333 6.28146 32.2667 0.414795 44 0.414795C61.6 0.414795 63.8 13.6148 72.6 15.8148C78.4667 17.2815 83.6 15.0815 88 9.2148C85.0667 20.9481 77.7333 26.8148 66 26.8148C48.4 26.8148 46.2 13.6148 37.4 11.4148C31.5333 9.94813 26.4 12.1481 22 18.0148ZM0 44.4148C2.93333 32.6815 10.2667 26.8148 22 26.8148C39.6 26.8148 41.8 40.0148 50.6 42.2148C56.4667 43.6815 61.6 41.4815 66 35.6148C63.0667 47.3481 55.7333 53.2148 44 53.2148C26.4 53.2148 24.2 40.0148 15.4 37.8148C9.53333 36.3481 4.4 38.5481 0 44.4148Z" fill="#252525"/>
</svg>
