<svg width="647" height="670" viewBox="0 0 647 670" fill="none" xmlns="http://www.w3.org/2000/svg">
<path d="M76.3465 414.024C76.3465 414.024 78.2013 389.547 73.1569 366.081C68.1124 342.615 55.8596 324.545 40.8387 317.491C25.8177 310.437 7.8179 320.049 20.7873 336.109C33.7568 352.17 60.6511 380.807 60.4966 422.666L76.3465 414.024Z" fill="#E0E0E0"/>
<path d="M68.6323 413.167H68.8149C69.051 413.16 69.2747 413.06 69.4377 412.889C69.6007 412.718 69.6899 412.49 69.6861 412.254C68.281 360.994 51.1945 335.323 31.4663 322.325C31.2705 322.197 31.032 322.152 30.8029 322.199C30.5739 322.247 30.3729 322.383 30.2438 322.578C30.178 322.673 30.1319 322.781 30.1083 322.895C30.0846 323.008 30.0839 323.126 30.1061 323.239C30.1284 323.353 30.1732 323.462 30.2378 323.558C30.3025 323.654 30.3858 323.737 30.4827 323.8C49.9439 336.686 66.5105 361.823 67.9016 412.324C67.9082 412.527 67.9844 412.722 68.1174 412.875C68.2504 413.029 68.4322 413.132 68.6323 413.167Z" fill="white"/>
<path d="M0.005283 368.02C0.286311 370.83 2.57669 373.022 4.76871 374.863C6.96072 376.704 9.33541 378.671 9.92557 381.453C11.134 387.074 4.45958 392.273 5.90687 397.837C6.29089 398.984 6.90526 400.041 7.7123 400.942C8.51933 401.844 9.50201 402.57 10.6 403.078C12.3974 403.963 14.2407 404.751 16.1222 405.439C17.0455 405.717 17.9838 405.942 18.9325 406.113C21.7447 406.367 24.3957 407.537 26.4781 409.444C29.5413 412.774 29.1619 417.874 30.2439 422.315C31.5647 427.584 34.6982 430.746 41.8784 433.191L66.4684 419.252C72.5948 413.013 74.7587 402.39 69.11 395.069C65.7237 390.713 59.3865 390.165 56.1828 385.795C53.3725 381.889 54.9743 376.24 53.2179 371.744C51.4615 367.247 46.7824 365.674 42.3702 364.901C37.9581 364.128 33.2649 365.955 28.9652 364.381C24.6655 362.807 20.6608 360.264 16.1925 359.154C14.0241 358.509 11.7371 358.369 9.50626 358.745C7.27546 359.12 5.15994 360 3.32141 361.318C2.25515 362.071 1.39355 363.079 0.81455 364.249C0.235548 365.419 -0.0425931 366.715 0.005283 368.02Z" fill="#EBEBEB"/>
<path d="M45.8409 390.151C45.7962 390.052 45.7288 389.966 45.6442 389.898C34.094 373.514 15.9677 365.73 9.8553 364.367C9.76894 364.335 9.67682 364.322 9.5851 364.329C9.49337 364.336 9.40415 364.362 9.3234 364.406C9.24264 364.45 9.17222 364.511 9.11682 364.584C9.06143 364.658 9.02234 364.742 9.00218 364.832C8.98201 364.922 8.98123 365.015 8.99988 365.105C9.01854 365.195 9.0562 365.28 9.11035 365.354C9.16451 365.429 9.2339 365.49 9.3139 365.536C9.39391 365.581 9.48267 365.609 9.57427 365.617C15.3775 366.91 32.197 374.048 43.5224 389.139C38.9069 387.582 34.0194 386.995 29.1665 387.416C24.3135 387.837 19.5999 389.256 15.3213 391.584C15.1789 391.676 15.0784 391.821 15.0416 391.987C15.0048 392.152 15.0346 392.326 15.1246 392.47C15.1835 392.555 15.2608 392.625 15.3508 392.676C15.4408 392.728 15.5412 392.758 15.6445 392.765C15.7754 392.769 15.9039 392.729 16.0098 392.652C20.3948 390.281 25.2453 388.898 30.2212 388.6C35.1971 388.301 40.1781 389.094 44.8152 390.924C51.5637 400.585 54.946 412.199 54.4404 423.973C54.4322 424.134 54.4859 424.292 54.5904 424.415C54.6948 424.537 54.8422 424.615 55.0024 424.633C55.1715 424.637 55.3354 424.574 55.4588 424.459C55.5823 424.343 55.6555 424.184 55.6628 424.015C56.2004 411.954 52.7484 400.052 45.8409 390.151Z" fill="white"/>
<path d="M580.932 430.507C580.693 412.24 581.031 395.378 590.305 369.439C598.075 347.646 618.056 325.669 631.545 326.597C644.121 327.468 646.904 342.91 635.592 356.653C624.281 370.395 599.649 396.685 598.131 415.668L593.311 437.209L580.932 430.507Z" fill="#E0E0E0"/>
<path d="M586.511 425.898C586.681 425.853 586.832 425.756 586.944 425.619C587.055 425.483 587.12 425.315 587.129 425.139C589.096 382.648 612.829 347.238 632.627 336.348C632.814 336.244 632.951 336.07 633.009 335.864C633.067 335.659 633.041 335.439 632.936 335.252C632.832 335.066 632.658 334.929 632.452 334.871C632.247 334.813 632.027 334.839 631.84 334.943C611.719 346.002 587.508 381.987 585.471 425.069C585.465 425.174 585.48 425.279 585.515 425.379C585.55 425.478 585.605 425.569 585.675 425.648C585.746 425.726 585.831 425.79 585.926 425.835C586.021 425.88 586.124 425.907 586.23 425.912L586.511 425.898Z" fill="white"/>
<path d="M597.948 439.781C598.721 433.373 604.595 422.062 615.358 411.762C627.274 400.381 643.545 393.425 646.271 385.598C649.587 376.212 641.283 371.196 627.555 374.133C611.044 377.659 592.749 396.544 589.616 435.13L597.948 439.781Z" fill="#EBEBEB"/>
<path d="M594.253 433.781C594.404 433.745 594.542 433.667 594.649 433.554C594.756 433.442 594.828 433.301 594.857 433.148C601.166 399.425 623.705 384.348 634.749 381.074C634.952 381.012 635.122 380.873 635.222 380.685C635.322 380.498 635.344 380.279 635.283 380.076C635.256 379.973 635.208 379.877 635.142 379.793C635.077 379.71 634.995 379.64 634.901 379.589C634.808 379.538 634.705 379.506 634.6 379.495C634.494 379.485 634.387 379.496 634.285 379.528C622.089 383.139 599.719 398.427 593.269 432.839C593.249 432.944 593.25 433.051 593.271 433.155C593.293 433.259 593.335 433.358 593.395 433.445C593.455 433.533 593.532 433.608 593.622 433.665C593.711 433.723 593.811 433.762 593.916 433.781C594.026 433.809 594.142 433.809 594.253 433.781Z" fill="white"/>
<path d="M101.948 617.826C-17.4887 548.876 -17.4887 437.069 101.948 368.104C221.385 299.14 415.041 299.154 534.478 368.104C653.915 437.055 653.915 548.876 534.478 617.826C415.041 686.776 221.385 686.79 101.948 617.826Z" fill="#FAFAFA"/>
<path d="M337.014 566.96L369.712 548.075C369.923 548.003 370.107 547.867 370.237 547.686C370.368 547.504 370.438 547.286 370.438 547.063C370.438 546.84 370.368 546.622 370.237 546.44C370.107 546.259 369.923 546.123 369.712 546.051L361.702 541.428C361.158 541.151 360.557 541.006 359.946 541.006C359.335 541.006 358.733 541.151 358.189 541.428L325.492 560.313C325.28 560.385 325.096 560.521 324.966 560.703C324.836 560.884 324.766 561.102 324.766 561.325C324.766 561.549 324.836 561.766 324.966 561.948C325.096 562.129 325.28 562.265 325.492 562.337L329.497 564.641L288.438 588.346C287.469 588.908 287.876 589.091 288.326 589.358C288.776 589.625 289.113 589.849 290.082 589.358L331.126 565.667L333.487 567.072C334.042 567.335 334.651 567.462 335.264 567.442C335.877 567.423 336.477 567.257 337.014 566.96Z" fill="#E0E0E0"/>
<path d="M324.663 530.721C322.11 530.774 319.588 530.164 317.342 528.951L316.682 528.529L315.473 527.672L325.773 526.169L326.7 524.229L323.89 522.6L314.054 524.005L314.377 523.077C314.966 521.674 316.038 520.528 317.398 519.845C319.611 518.671 322.088 518.081 324.593 518.131C325.701 518.127 326.807 518.23 327.895 518.44L361.449 499.077C361.044 498.234 360.944 497.275 361.168 496.366C361.417 495.586 361.821 494.864 362.358 494.246C362.894 493.627 363.551 493.125 364.288 492.768C366.508 491.599 368.987 491.009 371.496 491.054C374.05 490.999 376.574 491.615 378.817 492.839C379.044 492.968 379.265 493.108 379.477 493.26L380.686 494.103L370.386 495.607L369.459 497.56L372.269 499.19L382.105 497.785L381.782 498.698C381.193 500.105 380.122 501.256 378.761 501.944C376.545 503.112 374.07 503.701 371.566 503.658C370.458 503.658 369.352 503.55 368.264 503.335L334.709 522.712C335.114 523.551 335.214 524.505 334.991 525.41C334.744 526.191 334.339 526.912 333.803 527.531C333.266 528.15 332.609 528.652 331.871 529.007C329.653 530.183 327.172 530.773 324.663 530.721Z" fill="#E0E0E0"/>
<path d="M183.264 603.831C242.468 603.831 290.462 576.119 290.462 541.934C290.462 507.75 242.468 480.038 183.264 480.038C124.06 480.038 76.0656 507.75 76.0656 541.934C76.0656 576.119 124.06 603.831 183.264 603.831Z" fill="#E0E0E0"/>
<path d="M358.695 545.489L500.952 463.359L580.426 509.237L438.17 591.367L358.695 545.489Z" fill="#E0E0E0"/>
<path d="M321.993 497.63L266.504 465.593C264.495 464.441 264.495 462.544 266.504 461.378L356.236 409.584C357.368 409.009 358.62 408.709 359.89 408.709C361.159 408.709 362.411 409.009 363.543 409.584L419.032 441.607C421.041 442.774 421.041 444.67 419.032 445.823L329.3 497.63C328.168 498.205 326.916 498.505 325.646 498.505C324.377 498.505 323.125 498.205 321.993 497.63Z" fill="#E0E0E0"/>
<path d="M325.646 492.291V446.16L268.57 413.195L274.275 462.628L325.646 492.291Z" fill="#263238"/>
<path d="M325.646 492.291L411.262 442.858L416.966 393.425L325.646 446.16V492.291Z" fill="#37474F"/>
<path d="M265.001 403.317C265.043 402.864 265.204 402.431 265.468 402.06C265.732 401.69 266.09 401.396 266.504 401.21L356.237 349.402C357.369 348.827 358.62 348.527 359.89 348.527C361.16 348.527 362.411 348.827 363.543 349.402L419.032 381.439C419.448 381.625 419.806 381.918 420.071 382.289C420.335 382.659 420.495 383.094 420.536 383.547V396.727C420.498 397.183 420.338 397.62 420.074 397.993C419.809 398.367 419.45 398.662 419.032 398.849L329.3 450.642C328.168 451.217 326.916 451.517 325.647 451.517C324.377 451.517 323.125 451.217 321.993 450.642L266.504 418.605C266.091 418.417 265.734 418.123 265.47 417.753C265.206 417.383 265.044 416.95 265.001 416.497V403.317Z" fill="#FB9119"/>
<path opacity="0.2" d="M266.504 401.209L325.646 367.065V451.528C324.373 451.552 323.114 451.247 321.993 450.642L266.504 418.605C266.09 418.417 265.734 418.123 265.47 417.753C265.206 417.383 265.044 416.95 265.001 416.497V403.303C265.045 402.853 265.207 402.422 265.471 402.054C265.735 401.687 266.091 401.395 266.504 401.209Z" fill="black"/>
<path opacity="0.1" d="M325.646 367.065L356.236 349.402C357.368 348.827 358.62 348.527 359.89 348.527C361.159 348.527 362.411 348.827 363.543 349.402L419.032 381.439C419.447 381.625 419.806 381.918 420.07 382.289C420.334 382.659 420.495 383.094 420.535 383.547V396.727C420.497 397.183 420.338 397.62 420.074 397.993C419.809 398.367 419.449 398.662 419.032 398.849L329.3 450.642C328.178 451.247 326.92 451.552 325.646 451.528V367.065Z" fill="black"/>
<path d="M321.993 437.462L266.504 405.425C264.495 404.259 264.495 402.376 266.504 401.21L356.236 349.402C357.368 348.827 358.62 348.527 359.89 348.527C361.159 348.527 362.411 348.827 363.543 349.402L419.032 381.439C421.041 382.605 421.041 384.488 419.032 385.655L329.3 437.462C328.168 438.037 326.916 438.337 325.646 438.337C324.377 438.337 323.125 438.037 321.993 437.462Z" fill="#FB9119"/>
<path opacity="0.2" d="M402.704 385.191C404.278 386.104 404.194 387.622 402.507 388.591L340.105 424.633C339.199 425.113 338.192 425.371 337.166 425.388C336.141 425.405 335.126 425.18 334.204 424.732C332.63 423.832 332.714 422.301 334.4 421.331L396.803 385.303C397.708 384.822 398.715 384.561 399.74 384.541C400.765 384.521 401.781 384.744 402.704 385.191Z" fill="black"/>
<path opacity="0.2" d="M340.105 424.633C339.199 425.113 338.192 425.371 337.166 425.388C336.141 425.405 335.126 425.18 334.204 424.731L333.895 424.521C334.053 424.389 334.222 424.272 334.4 424.169L396.803 388.142C397.708 387.66 398.715 387.399 399.74 387.379C400.765 387.36 401.781 387.582 402.704 388.029L403.013 388.254C402.855 388.381 402.686 388.494 402.508 388.591L340.105 424.633Z" fill="black"/>
<path opacity="0.2" d="M357.037 358.83C358.625 359.73 358.541 361.261 356.854 362.231L294.438 398.259C293.535 398.74 292.531 399.001 291.508 399.021C290.485 399.04 289.471 398.818 288.551 398.371C286.977 397.458 287.061 395.94 288.733 394.971L351.15 358.929C352.054 358.45 353.058 358.191 354.082 358.174C355.105 358.157 356.118 358.382 357.037 358.83Z" fill="black"/>
<path opacity="0.2" d="M294.438 398.259C293.535 398.74 292.531 399.001 291.508 399.021C290.485 399.04 289.471 398.818 288.551 398.371C288.44 398.308 288.336 398.232 288.242 398.146C288.398 398.023 288.562 397.91 288.733 397.809L351.15 361.781C352.052 361.297 353.056 361.033 354.08 361.014C355.104 360.994 356.117 361.219 357.037 361.669C357.145 361.733 357.248 361.803 357.346 361.88C357.193 362.011 357.029 362.129 356.855 362.231L294.438 398.259Z" fill="black"/>
<path opacity="0.2" d="M299.946 401.743C298.373 402.657 298.457 404.174 300.143 405.144L322.625 418.099C323.528 418.581 324.532 418.842 325.556 418.861C326.579 418.881 327.592 418.658 328.513 418.212C330.087 417.298 330.002 415.781 328.33 414.811L305.848 401.856C304.942 401.374 303.936 401.113 302.911 401.094C301.885 401.074 300.87 401.297 299.946 401.743Z" fill="black"/>
<path opacity="0.2" d="M322.611 418.029C323.514 418.51 324.518 418.772 325.542 418.791C326.565 418.811 327.578 418.588 328.499 418.141C328.606 418.078 328.71 418.007 328.808 417.931C328.655 417.799 328.49 417.682 328.316 417.579L305.834 404.624C304.928 404.142 303.922 403.881 302.897 403.862C301.871 403.842 300.856 404.065 299.932 404.512C299.828 404.579 299.73 404.654 299.637 404.736C299.789 404.866 299.954 404.979 300.129 405.074L322.611 418.029Z" fill="black"/>
<path opacity="0.2" d="M288.551 408.263C286.977 409.163 287.061 410.694 288.733 411.664L311.216 424.619C312.121 425.101 313.127 425.362 314.153 425.381C315.178 425.401 316.194 425.178 317.117 424.732C318.691 423.818 318.607 422.287 316.92 421.317L294.438 408.362C293.534 407.882 292.529 407.624 291.506 407.607C290.483 407.589 289.47 407.815 288.551 408.263Z" fill="black"/>
<path opacity="0.2" d="M311.202 424.619C312.107 425.101 313.113 425.362 314.139 425.381C315.164 425.401 316.18 425.178 317.103 424.732C317.216 424.661 317.3 424.577 317.398 424.507C317.245 424.375 317.08 424.258 316.906 424.155L294.424 411.2C293.52 410.721 292.515 410.462 291.492 410.445C290.469 410.428 289.456 410.653 288.537 411.102C288.426 411.16 288.322 411.231 288.227 411.312C288.381 411.444 288.545 411.562 288.719 411.664L311.202 424.619Z" fill="black"/>
<path opacity="0.2" d="M368.447 362.133C366.873 363.046 366.943 364.563 368.63 365.533L391.112 378.488C392.015 378.97 393.019 379.231 394.042 379.251C395.065 379.27 396.079 379.047 396.999 378.601C398.587 377.687 398.503 376.17 396.817 375.2L374.334 362.245C373.431 361.764 372.427 361.502 371.404 361.483C370.381 361.463 369.368 361.686 368.447 362.133Z" fill="black"/>
<path opacity="0.2" d="M391.098 378.488C392.003 378.97 393.01 379.231 394.035 379.251C395.06 379.27 396.076 379.048 396.999 378.601C397.103 378.534 397.202 378.459 397.294 378.376C397.141 378.249 396.976 378.136 396.803 378.039L374.32 365.083C373.417 364.602 372.413 364.341 371.39 364.321C370.367 364.302 369.354 364.524 368.433 364.971C368.325 365.035 368.222 365.105 368.124 365.182C368.277 365.313 368.441 365.431 368.615 365.533L391.098 378.488Z" fill="black"/>
<path opacity="0.2" d="M357.037 368.709C355.463 369.622 355.548 371.154 357.22 372.123L379.702 385.079C380.609 385.556 381.615 385.815 382.64 385.834C383.664 385.854 384.679 385.633 385.604 385.191C387.177 384.278 387.093 382.746 385.407 381.776L362.925 368.821C362.02 368.346 361.016 368.089 359.994 368.069C358.972 368.049 357.96 368.268 357.037 368.709Z" fill="black"/>
<path opacity="0.2" d="M379.688 385.079C380.595 385.556 381.601 385.815 382.626 385.834C383.65 385.854 384.665 385.633 385.59 385.191L385.899 384.966C385.741 384.835 385.571 384.717 385.393 384.615L362.911 371.659C362.004 371.182 360.998 370.923 359.973 370.904C358.949 370.884 357.934 371.105 357.009 371.547L356.7 371.772C356.856 371.9 357.02 372.017 357.192 372.123L379.688 385.079Z" fill="black"/>
<path d="M319.942 390.573V403.317L325.646 406.619L331.351 403.317V393.65C331.409 392.595 331.714 391.569 332.241 390.654C332.768 389.739 333.503 388.96 334.386 388.381L348.438 380.245L351.108 378.713C352.78 377.744 354.143 378.531 354.143 380.47V390.137L359.847 386.835V374.09C359.862 373.838 359.862 373.584 359.847 373.332C359.835 373.138 359.807 372.945 359.763 372.755C359.724 372.536 359.667 372.32 359.595 372.109C359.538 371.942 359.472 371.778 359.398 371.617C359.32 371.456 359.231 371.301 359.131 371.154C359.039 371.009 358.936 370.873 358.822 370.746C358.715 370.623 358.598 370.51 358.47 370.409C358.348 370.312 358.216 370.227 358.077 370.156L357.894 370.058L352.4 366.882C351.714 366.56 350.954 366.43 350.199 366.504C349.445 366.578 348.725 366.854 348.115 367.303L326.04 380.048C324.266 381.198 322.789 382.751 321.73 384.58C320.67 386.409 320.057 388.462 319.942 390.573Z" fill="#455A64"/>
<path d="M348.466 380.245V386.821L354.171 390.123V380.456C354.171 378.517 352.766 377.73 351.136 378.699L348.466 380.245Z" fill="#263238"/>
<path d="M325.646 393.861V406.619L331.351 403.317V393.65C331.409 392.595 331.714 391.569 332.241 390.654C332.768 389.739 333.503 388.96 334.386 388.381L348.438 380.259L351.107 378.727C352.78 377.758 354.143 378.545 354.143 380.484V390.151L359.847 386.863V374.104C359.862 373.852 359.862 373.598 359.847 373.346C359.835 373.152 359.807 372.959 359.763 372.769C359.724 372.55 359.667 372.334 359.595 372.123C359.537 371.956 359.472 371.792 359.398 371.631C359.32 371.47 359.231 371.315 359.131 371.168C359.039 371.024 358.936 370.887 358.822 370.76C358.715 370.637 358.598 370.524 358.47 370.423C358.348 370.326 358.216 370.241 358.077 370.17L357.894 370.072C357.223 369.821 356.501 369.738 355.79 369.832C355.08 369.925 354.403 370.19 353.819 370.606L331.745 383.35C329.976 384.502 328.503 386.053 327.444 387.879C326.384 389.705 325.769 391.754 325.646 393.861Z" fill="#37474F"/>
<path d="M354.185 449.448L352.077 448.24L346.358 451.528L348.48 452.75L354.185 449.448Z" fill="#455A64"/>
<path d="M348.48 452.75L346.372 480.333L346.358 451.528L348.48 452.75Z" fill="#263238"/>
<path d="M354.185 449.448L352.077 477.031L352.766 476.708L354.185 449.448Z" fill="#37474F"/>
<path d="M306.41 454.83L308.518 453.607L314.223 456.895L312.115 458.118L306.41 454.83Z" fill="#455A64"/>
<path d="M306.41 454.83L308.518 482.398L307.829 482.075L306.41 454.83Z" fill="black"/>
<path d="M283.576 441.635L285.698 440.427L291.403 443.715L289.281 444.937L283.576 441.635Z" fill="#455A64"/>
<path d="M314.223 485.701L312.115 458.118L314.223 456.895V485.701Z" fill="#37474F"/>
<path d="M291.403 443.715V472.52L289.281 444.937L291.403 443.715Z" fill="#37474F"/>
<path d="M283.576 441.635L285.684 469.218L284.996 468.895L283.576 441.635Z" fill="black"/>
<path d="M394.133 426.39L392.025 425.167L386.32 428.455L388.428 429.678L394.133 426.39Z" fill="#455A64"/>
<path d="M388.428 429.678L386.32 457.261V428.455L388.428 429.678Z" fill="#263238"/>
<path d="M394.133 426.39L392.025 453.973L392.728 453.635L394.133 426.39Z" fill="#37474F"/>
<path d="M343.295 444.769L343.309 438.179L354.719 431.589L356.63 432.685L356.616 439.275L345.192 445.865L343.295 444.769Z" fill="#37474F"/>
<path d="M356.63 432.685L356.616 439.275L345.192 445.865L345.22 439.275L356.63 432.685Z" fill="#455A64"/>
<path d="M345.22 439.275L343.309 438.179L343.295 444.769L345.192 445.865L345.22 439.275Z" fill="#263238"/>
<path d="M383.552 421.542L383.58 414.952L394.99 408.362L396.901 409.458L396.873 416.048L385.463 422.638L383.552 421.542Z" fill="#37474F"/>
<path d="M396.901 409.458L396.873 416.048L385.463 422.638L385.477 416.048L396.901 409.458Z" fill="#455A64"/>
<path d="M385.477 416.048L383.58 414.952L383.552 421.542L385.463 422.638L385.477 416.048Z" fill="#263238"/>
<path d="M317.89 519.438C317.117 519.874 315.67 519.859 315.206 520.379V522.276L324.03 520.998L327.361 522.951L326.096 525.606L317.187 525.002V526.899C317.376 527.042 317.573 527.173 317.778 527.293C319.886 528.359 322.216 528.915 324.578 528.915C326.941 528.915 329.271 528.359 331.379 527.293C332.156 526.944 332.827 526.394 333.32 525.7C333.814 525.006 334.114 524.193 334.19 523.344V521.447L333.67 521.532C333.665 521.499 333.665 521.466 333.67 521.433L367.056 502.155C370.45 502.908 374.001 502.461 377.103 500.89C378.303 500.302 379.254 499.306 379.786 498.08V496.169L370.962 499.358L367.632 497.405L368.897 494.75L377.805 493.457V491.546C377.805 491.546 367.393 490.857 363.599 492.951C362.638 493.456 361.828 494.208 361.253 495.129L360.747 494.946V496.829C360.741 497.532 360.941 498.22 361.323 498.81L327.937 518.089C324.533 517.362 320.982 517.839 317.89 519.438Z" fill="#37474F"/>
<path d="M367.056 502.211V500.314L333.67 519.593V521.489L367.056 502.211Z" fill="#37474F"/>
<path d="M361.323 496.998L327.937 516.276C324.544 515.525 320.995 515.967 317.89 517.527C316.69 518.115 315.738 519.111 315.206 520.337L324.03 519.059L327.361 521.012L326.096 523.653L317.187 524.96C317.376 525.103 317.573 525.234 317.778 525.354C319.886 526.42 322.216 526.976 324.578 526.976C326.941 526.976 329.271 526.42 331.379 525.354C334.19 523.78 334.92 521.475 333.67 519.494L367.056 500.216C370.451 500.961 373.999 500.515 377.103 498.951C378.303 498.363 379.254 497.367 379.786 496.141L370.962 497.433L367.632 495.48L368.897 492.825L377.805 491.518L377.215 491.138C375.107 490.072 372.777 489.516 370.414 489.516C368.051 489.516 365.721 490.072 363.613 491.138C360.901 492.712 360.072 495.017 361.323 496.998Z" fill="#455A64"/>
<path d="M368.335 495.944L367.632 495.537L368.897 492.881L377.805 491.574V493.485L368.897 494.778L368.335 495.944Z" fill="#263238"/>
<path d="M326.658 522.529L327.361 521.054L324.03 519.087L315.206 520.379V522.29L324.03 520.998L326.658 522.529Z" fill="#263238"/>
<path d="M338.321 547.485L345.346 559.569L368.897 545.981C369.442 545.644 369.879 545.158 370.158 544.58C370.437 544.003 370.545 543.358 370.47 542.721C370.378 541.006 369.882 539.337 369.023 537.85C368.163 536.363 366.964 535.1 365.524 534.164C365.027 533.801 364.441 533.578 363.828 533.519C363.215 533.46 362.597 533.566 362.04 533.827L338.321 547.485Z" fill="#FB9119"/>
<path d="M336.916 549.986C336.817 551.826 334.218 552.22 334.218 552.22L339.15 560.777C339.15 560.777 340.794 558.754 342.438 559.555C344.869 560.609 346.766 559.302 346.766 556.393C346.671 554.68 346.174 553.014 345.315 551.53C344.455 550.045 343.258 548.785 341.82 547.85C339.29 546.375 337.211 547.358 336.916 549.986Z" fill="#FB9119"/>
<path opacity="0.05" d="M336.916 549.986C336.817 551.826 334.218 552.22 334.218 552.22L339.15 560.777C339.15 560.777 340.794 558.754 342.438 559.555C344.869 560.609 346.766 559.302 346.766 556.393C346.671 554.68 346.174 553.014 345.315 551.53C344.455 550.045 343.258 548.785 341.82 547.85C339.29 546.375 337.211 547.358 336.916 549.986Z" fill="black"/>
<path opacity="0.05" d="M335.384 551.855C335.007 552.025 334.611 552.148 334.204 552.22L339.136 560.777C339.408 560.468 339.715 560.189 340.049 559.948C339.908 558.341 339.418 556.783 338.612 555.385C337.806 553.987 336.704 552.782 335.384 551.855Z" fill="black"/>
<path d="M329.061 552.824L329.468 553.541C329.328 554.039 329.257 554.555 329.258 555.072C329.352 556.787 329.849 558.455 330.708 559.942C331.568 561.429 332.765 562.692 334.204 563.63C334.64 563.892 335.114 564.086 335.609 564.206L336.016 564.922L337.66 563.981C338.157 563.619 338.549 563.132 338.796 562.569C339.043 562.006 339.136 561.388 339.065 560.777C338.974 559.064 338.479 557.396 337.622 555.909C336.765 554.422 335.57 553.158 334.133 552.22C333.633 551.857 333.045 551.635 332.43 551.576C331.815 551.516 331.195 551.622 330.635 551.883L329.061 552.824Z" fill="#FB9119"/>
<path d="M337.492 561.733C337.4 560.019 336.906 558.351 336.049 556.864C335.192 555.378 333.996 554.114 332.56 553.175C329.834 551.602 327.614 552.88 327.614 555.986C327.71 557.7 328.208 559.367 329.067 560.854C329.926 562.34 331.123 563.604 332.56 564.543C335.286 566.145 337.492 564.88 337.492 561.733Z" fill="#FB9119"/>
<path opacity="0.15" d="M337.492 561.733C337.4 560.019 336.906 558.351 336.049 556.864C335.192 555.378 333.996 554.114 332.56 553.175C329.834 551.602 327.614 552.88 327.614 555.986C327.71 557.7 328.208 559.367 329.067 560.854C329.926 562.34 331.123 563.604 332.56 564.543C335.286 566.145 337.492 564.88 337.492 561.733Z" fill="black"/>
<path opacity="0.15" d="M330.635 563.011C331 563.421 331.41 563.788 331.857 564.107L333.009 560.819L331.604 559.794L330.635 563.011Z" fill="black"/>
<path opacity="0.2" d="M366.395 539.335C366.563 539.65 366.603 540.018 366.509 540.362C366.415 540.707 366.194 541.003 365.89 541.19L349.028 550.899C348.713 551.072 348.343 551.117 347.995 551.025C347.648 550.934 347.349 550.713 347.159 550.407C346.992 550.092 346.951 549.724 347.045 549.38C347.139 549.035 347.361 548.74 347.665 548.552L364.527 538.843C364.842 538.67 365.211 538.625 365.559 538.717C365.907 538.808 366.206 539.029 366.395 539.335Z" fill="black"/>
<path opacity="0.2" d="M363.36 535.724C363.49 535.789 363.6 535.89 363.676 536.014C363.752 536.138 363.793 536.28 363.793 536.426C363.793 536.572 363.752 536.715 363.676 536.839C363.6 536.963 363.49 537.063 363.36 537.129L346.218 546.965C345.9 547.118 345.545 547.178 345.195 547.139C344.844 547.099 344.512 546.961 344.236 546.74C344.106 546.674 343.997 546.574 343.921 546.45C343.844 546.326 343.804 546.183 343.804 546.037C343.804 545.892 343.844 545.749 343.921 545.625C343.997 545.501 344.106 545.4 344.236 545.335L361.365 535.499C361.685 535.342 362.042 535.281 362.395 535.32C362.749 535.36 363.084 535.5 363.36 535.724Z" fill="black"/>
<path opacity="0.2" d="M368.011 543.775C368.007 543.633 367.965 543.495 367.889 543.375C367.814 543.254 367.708 543.156 367.582 543.091C367.456 543.025 367.315 542.994 367.173 543C367.031 543.007 366.894 543.051 366.775 543.129L349.632 552.965C349.341 553.164 349.111 553.44 348.97 553.763C348.828 554.086 348.78 554.442 348.831 554.791C348.836 554.933 348.878 555.071 348.953 555.192C349.029 555.312 349.135 555.41 349.261 555.476C349.386 555.541 349.527 555.573 349.669 555.566C349.811 555.559 349.949 555.515 350.068 555.438L367.21 545.602C367.5 545.402 367.729 545.125 367.87 544.802C368.012 544.479 368.061 544.124 368.011 543.775Z" fill="black"/>
<path d="M289.239 581.672V584.96L297.473 582.29C298.286 580.754 299.405 579.4 300.761 578.313L332.04 560.257L332.995 557.517L332.04 556.969L300.761 575.025C300.246 575.287 299.67 575.407 299.093 575.375C298.516 575.343 297.957 575.16 297.473 574.843L289.239 581.672Z" fill="#455A64"/>
<path d="M290.209 582.234V585.522L298.443 582.852C299.252 581.313 300.372 579.959 301.731 578.875L333.009 560.819V557.517L301.731 575.573C301.217 575.838 300.642 575.962 300.064 575.932C299.487 575.903 298.927 575.721 298.443 575.405L290.209 582.234Z" fill="#37474F"/>
<path d="M290.209 585.522L289.253 584.96V581.672L290.209 582.234V585.522Z" fill="#263238"/>
<path d="M289.253 581.672L290.209 582.234L298.443 575.405L297.487 574.843L289.253 581.672Z" fill="#455A64"/>
<path d="M406.47 158.57H334.049C333.769 158.57 333.501 158.459 333.304 158.261C333.106 158.064 332.995 157.796 332.995 157.516C332.995 157.237 333.106 156.969 333.304 156.771C333.501 156.573 333.769 156.462 334.049 156.462H406.47C406.749 156.462 407.017 156.573 407.215 156.771C407.413 156.969 407.524 157.237 407.524 157.516C407.524 157.796 407.413 158.064 407.215 158.261C407.017 158.459 406.749 158.57 406.47 158.57Z" fill="#37474F"/>
<path d="M240.059 205.403C233.104 192.125 221.877 163.432 221.877 163.432L222.116 124.917C221.834 124.917 227.315 126.575 228.987 126.968C239.834 130.973 242.827 132.884 247.478 142.425C251.174 150.027 263.623 184.692 268.05 196.425L294.536 177.582C301.211 171.961 302.771 163.952 306.845 158.964C310.92 153.975 315.543 152.598 320.152 148.369C324.761 144.139 326.503 140.992 328.274 144.378C330.044 147.765 325.014 153.989 324.143 155.493C323.538 156.561 322.007 157.348 321.656 158.542C321.079 160.593 324.129 160.27 325.435 159.947C331.899 158.542 337.773 153.09 341.763 148.102C343.323 146.149 349.014 138.561 350.461 144.687C351.641 149.676 347.538 152.865 347.243 157.46C347.1 160.005 346.43 162.494 345.276 164.767C344.306 166.846 344.756 169.263 344.068 171.441C341.946 178.214 336.564 180.532 330.311 182.682C324.058 184.832 317.3 186.308 312.115 190.298C305.82 195.16 290.602 211.544 281.342 221.394C269.581 233.914 261.825 236.85 254.94 229.473C248.054 222.096 242.687 210.321 240.059 205.403Z" fill="#FFA8A7"/>
<path d="M350.503 144.758C349.098 138.631 343.365 146.163 341.805 148.172C337.815 153.16 331.969 158.612 325.478 160.017C324.171 160.298 321.122 160.622 321.698 158.612C322.049 157.418 323.581 156.631 324.185 155.563C325.056 154.06 330.087 147.821 328.316 144.448C326.546 141.076 324.817 144.196 320.194 148.439C315.571 152.683 310.963 154.06 306.888 159.034C302.813 164.008 301.267 172.045 294.579 177.652L292.766 178.945C293.862 186.35 298.387 193.6 304.949 196.93C307.843 194.12 310.372 191.774 312.157 190.382C317.342 186.392 324.269 184.762 330.354 182.767C336.438 180.771 341.988 178.326 344.11 171.525C344.798 169.348 344.349 166.931 345.318 164.851C346.473 162.578 347.142 160.09 347.285 157.544C347.58 152.936 351.684 149.746 350.503 144.758Z" fill="#455A64"/>
<path d="M295.942 176.359C295.815 178.804 297.178 185.324 300.283 188.795C302.396 191.031 304.945 192.81 307.773 194.022L308.897 193.151C308.897 193.151 309.965 193.263 307.098 196.144C304.232 199.024 303.557 200.092 301.956 199.853C300.354 199.614 295.829 197.043 292.766 192.279C290.538 188.927 289.216 185.054 288.93 181.038C289.014 179.633 290.981 178.621 292.766 177.329C294.55 176.036 296.405 173.886 297.403 174.743L295.942 176.359Z" fill="#FB9119"/>
<path opacity="0.2" d="M295.942 176.359C295.815 178.804 297.178 185.324 300.283 188.795C302.396 191.031 304.945 192.81 307.773 194.022L308.897 193.151C308.897 193.151 309.965 193.263 307.098 196.144C304.232 199.024 303.557 200.092 301.956 199.853C300.354 199.614 295.829 197.043 292.766 192.279C290.538 188.927 289.216 185.054 288.93 181.038C289.014 179.633 290.981 178.621 292.766 177.329C294.55 176.036 296.405 173.886 297.403 174.743L295.942 176.359Z" fill="black"/>
<path d="M225.53 125.549C232.626 127.193 238.176 129.877 241.549 132.744C246.748 137.24 249.122 144.252 252.663 153.821C256.204 163.39 265.31 186.701 265.31 186.701C254.77 190.056 245.791 197.094 240.017 206.528L215.905 156.35L225.53 125.549Z" fill="#E0E0E0"/>
<path d="M268.162 196.453C263.485 198.809 259.695 202.614 257.356 207.3C257.356 207.3 257.356 199.558 267.192 193.769L268.162 196.453Z" fill="#F28F8F"/>
<path d="M143.976 129.596C143.976 129.596 135.728 136.847 133.62 144.687C132.594 148.537 131.639 151.713 134.899 173.127C138.004 193.544 140.21 193.544 141.798 209.113L139.521 248.077C151.732 262.382 208.753 269.66 237.277 250.396C237.277 250.396 238.514 191.24 236.504 166.874C235.099 150.308 228.144 133.32 225.53 125.549C217.774 124.144 210.312 123.301 210.312 123.301L181.788 121.643L143.976 129.596Z" fill="#FAFAFA"/>
<path d="M223.747 71.1985C227.484 62.599 223.817 51.1893 219.334 45.8357C212.857 38.0934 202.782 34.7491 187.578 35.6906C176.028 36.4072 164.66 41.2128 162.497 53.0721C153.223 55.8824 154.276 71.086 156.581 77.8167C161.274 91.4746 170.492 103.348 170.632 110.332L223.747 71.1985Z" fill="#37474F"/>
<path d="M223.732 103.306C221.905 109.896 218.111 114.73 211.999 115.685C208.797 115.987 205.575 115.987 202.373 115.685L202.612 124.116C215.259 140.121 185.666 143.366 171.053 125.83L170.182 97.4886C170.182 97.4886 166.458 101.704 160.346 97.7135C157.86 95.8792 156.082 93.2433 155.314 90.2507C154.546 87.2581 154.835 84.0921 156.13 81.2874C159.179 74.8659 165.278 77.5216 167.161 79.4747C169.044 81.4279 171.221 85.0953 172.781 84.5895C173.682 84.3092 174.499 83.8093 175.159 83.1348C175.819 82.4603 176.301 81.6323 176.561 80.7253C177.98 76.7273 178.651 72.5026 178.542 68.2617C180.348 67.3391 181.967 66.0911 183.32 64.5803C185.788 61.9845 187.278 58.612 187.535 55.0394C200.701 50.9223 215.849 52.8614 221.259 57.1049C224.406 62.6552 224.532 75.5544 225.052 82.9876C225.629 91.0671 225.263 97.7978 223.732 103.306Z" fill="#FFA8A7"/>
<path d="M202.373 115.727C195.629 115.348 182.069 112.2 178.486 108.449C174.903 104.697 173.343 96.9828 173.343 96.9828C173.343 96.9828 173.877 106.706 176.673 111.034C179.47 115.362 186.509 117.203 190.725 118.271C194.6 119.076 198.517 119.667 202.458 120.041L202.373 115.727Z" fill="#F28F8F"/>
<path d="M198.102 78.6878C198.102 79.4164 197.82 80.1167 197.314 80.641C196.808 81.1653 196.118 81.4726 195.39 81.4981C194.83 81.5177 194.278 81.3697 193.803 81.073C193.328 80.7764 192.952 80.3447 192.724 79.8332C192.497 79.3217 192.427 78.7538 192.524 78.2024C192.621 77.6509 192.88 77.141 193.269 76.7381C193.658 76.3352 194.158 76.0576 194.706 75.9409C195.254 75.8243 195.824 75.8739 196.343 76.0834C196.862 76.2929 197.307 76.6527 197.62 77.1168C197.934 77.5808 198.101 78.1279 198.102 78.6878Z" fill="#263238"/>
<path d="M194.294 69.976L188.772 73.6996C188.286 72.9393 188.113 72.0208 188.288 71.1358C188.464 70.2508 188.974 69.4678 189.713 68.9503C190.078 68.7069 190.489 68.5401 190.92 68.4599C191.351 68.3796 191.795 68.3877 192.223 68.4836C192.651 68.5795 193.055 68.7612 193.411 69.0177C193.767 69.2742 194.067 69.6002 194.294 69.976Z" fill="#263238"/>
<path d="M221.09 71.7184L215.034 68.8238C215.202 68.4201 215.451 68.0549 215.765 67.7507C216.08 67.4464 216.453 67.2095 216.862 67.0543C217.271 66.8991 217.707 66.829 218.144 66.8481C218.581 66.8673 219.01 66.9753 219.404 67.1657C220.212 67.5669 220.836 68.2615 221.15 69.1076C221.463 69.9537 221.442 70.8875 221.09 71.7184Z" fill="#263238"/>
<path d="M218.982 77.7183C218.966 78.2535 218.792 78.772 218.482 79.2091C218.173 79.6462 217.742 79.9824 217.242 80.1759C216.743 80.3693 216.198 80.4114 215.675 80.2969C215.151 80.1824 214.674 79.9163 214.301 79.532C213.928 79.1476 213.677 78.6619 213.578 78.1355C213.48 77.6092 213.538 77.0655 213.747 76.5723C213.955 76.079 214.305 75.6582 214.751 75.3622C215.197 75.0662 215.721 74.9083 216.256 74.908C216.987 74.9299 217.68 75.2357 218.189 75.7604C218.698 76.285 218.982 76.9873 218.982 77.7183Z" fill="#263238"/>
<path d="M204.369 72.8284L206.336 92.416L216.86 89.2404L204.369 72.8284Z" fill="#F28F8F"/>
<path d="M198.088 96.9828L209.329 99.4839C209.206 100.24 208.929 100.962 208.517 101.607C208.104 102.252 207.565 102.806 206.93 103.235C206.296 103.664 205.581 103.959 204.829 104.101C204.077 104.244 203.303 104.232 202.556 104.065C201.044 103.684 199.737 102.736 198.905 101.418C198.073 100.099 197.781 98.5112 198.088 96.9828Z" fill="#B16668"/>
<path d="M202.598 104.065C202.831 104.106 203.065 104.134 203.301 104.149C203.271 102.78 202.706 101.477 201.726 100.52C200.745 99.5639 199.429 99.0303 198.06 99.0343C198.217 100.234 198.736 101.357 199.546 102.255C200.357 103.154 201.421 103.785 202.598 104.065Z" fill="#F28F8F"/>
<path d="M154.346 69.9761C154.694 73.4093 155.536 76.7742 156.847 79.9666C157.592 79.0252 158.449 78.0978 159.32 77.1563C164.406 72.1696 170.333 68.1214 176.828 65.1986C191.849 58.1729 210.242 55.8123 224.968 59.9012C224.428 56.983 223.507 54.1484 222.228 51.4704C218.701 43.7976 212.566 37.6253 204.915 34.0522C197.263 30.4791 188.592 29.737 180.445 31.958C172.298 34.1791 165.203 39.2191 160.424 46.181C155.644 53.1429 153.491 61.5749 154.346 69.9761Z" fill="#FB9119"/>
<path d="M169.802 34.4822C171.587 33.611 180.566 30.9272 181.296 30.7024C185.947 29.2972 193.437 29.3816 201.123 35.7047C207.125 40.7141 211.344 47.5315 213.151 55.1378L203.596 58.1307L200.547 58.4258C199.423 51.4001 190.163 36.2667 177.151 35.7047C176.543 35.6627 175.933 35.6627 175.324 35.7047C173.601 35.791 171.9 36.1368 170.28 36.7304C168.512 37.9672 166.826 39.3191 165.236 40.7772C165.395 39.4252 165.899 38.1367 166.699 37.0347C167.498 35.9326 168.567 35.0539 169.802 34.4822Z" fill="#FB9119"/>
<path opacity="0.45" d="M169.802 34.4822C171.587 33.611 180.566 30.9272 181.296 30.7024C185.947 29.2972 193.437 29.3816 201.123 35.7047C207.125 40.7141 211.344 47.5315 213.151 55.1378L203.596 58.1307L200.547 58.4258C199.423 51.4001 190.163 36.2667 177.151 35.7047C176.543 35.6627 175.933 35.6627 175.324 35.7047C173.601 35.791 171.9 36.1368 170.28 36.7304C168.512 37.9672 166.826 39.3191 165.236 40.7772C165.395 39.4252 165.899 38.1367 166.699 37.0347C167.498 35.9326 168.567 35.0539 169.802 34.4822Z" fill="white"/>
<path d="M200.575 58.4399C199.17 50.262 186.776 30.9132 170.308 36.7445C168.535 37.9811 166.845 39.3329 165.25 40.7913C165.41 39.4395 165.912 38.1508 166.708 37.0469C167.505 35.943 168.57 35.0603 169.802 34.4823C174.088 32.4167 182.687 31.405 191.582 38.6977C197.578 43.7035 201.793 50.5162 203.596 58.1167L200.575 58.4399Z" fill="#FB9119"/>
<path opacity="0.3" d="M200.575 58.4399C199.17 50.262 186.776 30.9132 170.308 36.7445C168.535 37.9811 166.845 39.3329 165.25 40.7913C165.41 39.4395 165.912 38.1508 166.708 37.0469C167.505 35.943 168.57 35.0603 169.802 34.4823C174.088 32.4167 182.687 31.405 191.582 38.6977C197.578 43.7035 201.793 50.5162 203.596 58.1167L200.575 58.4399Z" fill="black"/>
<path d="M176.561 62.3883C177.249 61.7841 180.58 54.6179 192.439 48.3369C199.76 44.4307 214.767 44.2339 221.497 44.3463C233.286 44.5431 236.097 47.0442 236.251 48.7866C236.251 49.1941 236.448 51.1051 236.504 51.5266C236.558 51.9195 236.468 52.3188 236.251 52.6507C234.495 55.3205 225.01 59.9574 225.01 59.9574C210.284 55.8685 191.891 58.2291 176.87 65.2548L176.561 62.3883Z" fill="#FB9119"/>
<path opacity="0.15" d="M176.561 62.3883C177.249 61.7841 180.58 54.6179 192.439 48.3369C199.76 44.4307 214.767 44.2339 221.497 44.3463C233.286 44.5431 236.097 47.0442 236.251 48.7866C236.251 49.1941 236.448 51.1051 236.504 51.5266C236.558 51.9195 236.468 52.3188 236.251 52.6507C234.495 55.3205 225.01 59.9574 225.01 59.9574C210.284 55.8685 191.891 58.2291 176.87 65.2548L176.561 62.3883Z" fill="black"/>
<path d="M176.828 65.1985C191.849 58.1728 210.242 55.8122 224.968 59.9012C224.968 59.9012 234.495 55.2642 236.209 52.5944C237.165 51.119 236.308 47.3392 221.736 47.1003C214.992 46.9879 199.985 47.1846 192.664 51.0909C180.847 57.4843 177.516 64.5943 176.828 65.1985Z" fill="#FB9119"/>
<path opacity="0.3" d="M176.828 65.1985C191.849 58.1728 210.242 55.8122 224.968 59.9012C224.968 59.9012 234.495 55.2642 236.209 52.5944C237.165 51.119 236.308 47.3392 221.736 47.1003C214.992 46.9879 199.985 47.1846 192.664 51.0909C180.847 57.4843 177.516 64.5943 176.828 65.1985Z" fill="black"/>
<path d="M222.2 495.804C222.65 488.342 226.654 413.181 226.654 413.181L190.121 438.938C196.486 481.907 197.891 494.862 198.158 502.028C198.007 502.63 197.95 503.25 197.989 503.869C198.186 512.384 208.387 516.824 216.383 522.389C223.198 527.301 230.418 531.625 237.966 535.316C243.741 537.972 255.375 538.056 256.752 534.529C247.029 527.7 235.774 520.253 227.989 512.412C224.322 508.661 221.652 504.74 222.2 495.804Z" fill="#FFA8A7"/>
<path d="M273.333 543.466C273.825 543.466 274.668 548.595 272.026 550.829C268.991 553.4 260.012 557.686 248.026 556.379C236.041 555.072 229.493 551.658 224.631 547.948C219.769 544.239 212.954 538.927 207.516 537.873C202.472 536.89 196.978 534.796 195.334 533.349C193.69 531.902 193.802 525.311 193.802 525.311L273.333 543.466Z" fill="#263238"/>
<path d="M235.956 515.237C235.169 514.506 234.411 513.831 233.666 513.016C231.156 510.282 229.212 507.078 227.947 503.588C227.171 501.921 226.568 500.179 226.148 498.389C225.769 496.323 225.53 494.174 225.179 492.164C225.052 491.391 225.179 489.691 224.223 489.354C223.11 489.229 221.984 489.439 220.991 489.958C218.561 490.998 216.017 491.799 213.516 492.684C212.111 493.176 209.23 493.935 208.809 495.494C208.387 497.054 209.09 498.993 208.809 500.679C208.682 501.34 208.401 502.084 207.629 502C206.223 502 205.872 499.977 205.507 498.993C204.72 496.928 204.102 495.958 201.868 495.354C200.701 495.031 198.425 494.876 197.652 493.836L197.357 491.026C196.718 491.155 196.118 491.43 195.604 491.83C195.089 492.23 194.675 492.743 194.392 493.33C193.423 495.34 194.069 498.136 194.392 500.272C194.788 502.393 194.967 504.55 194.926 506.707C194.757 508.552 194.461 510.383 194.041 512.187C193.444 515.337 193.148 518.537 193.156 521.742C193.127 523.23 193.24 524.717 193.493 526.183C193.714 527.396 194.387 528.481 195.376 529.218C196.882 530.546 198.621 531.584 200.505 532.281C203.076 533.307 205.732 534.094 208.345 535.007C213.727 536.862 219.994 540.768 225.502 544.941C231.01 549.115 243.08 553.499 250.879 553.499C262.794 553.499 271.113 549.564 273.361 545.461C273.572 542.651 273.74 539.841 272.462 537.845C268.246 531.41 259.015 529.33 251.581 525.789C248.347 524.156 245.221 522.317 242.223 520.281C239.997 518.777 237.901 517.09 235.956 515.237Z" fill="#37474F"/>
<path d="M256.19 527.728C241.591 531.859 236.518 541.709 234.368 549.677C239.604 551.912 245.193 553.206 250.879 553.499C262.794 553.499 271.113 549.564 273.361 545.461C273.572 542.651 273.74 539.841 272.462 537.845C269.16 532.646 262.541 530.286 256.19 527.728Z" fill="#455A64"/>
<path d="M208.303 534.951L208.921 535.19C208.345 523.948 203.708 516.501 193.549 514.998C193.256 517.215 193.11 519.449 193.113 521.686C193.085 523.174 193.198 524.66 193.451 526.126C193.672 527.34 194.345 528.424 195.334 529.161C196.84 530.489 198.579 531.528 200.462 532.225C203.034 533.25 205.689 534.037 208.303 534.951Z" fill="#455A64"/>
<path d="M162.004 435.312L123.924 427.036C122.927 450.6 123.531 482.483 122.73 504.6C122.575 508.815 120.426 536.918 121.62 545.545C123.419 558.543 140.828 557.7 142.261 550.056C143.695 542.412 144.959 509.728 145.254 506.342C146.055 492.178 154.149 468.403 159.812 443.111C160.093 441.945 161.737 436.521 162.004 435.312Z" fill="#FFA8A7"/>
<path d="M148.416 555.789C148.276 563.363 147.166 568.435 144.327 572.96C141.489 577.484 135.826 579.114 129.967 578.032C124.107 576.95 116.505 573.817 114.51 567.297C112.515 560.777 112.683 556.365 113.681 549.311L148.416 555.789Z" fill="#263238"/>
<path d="M123.039 491.574C120.664 491.827 120.229 512.384 119.273 522.586C118.29 533.517 114.819 538.154 113.906 547.133C112.866 557.391 113.681 561.915 118.009 567.929C122.337 573.943 136.964 579.466 143.624 570.374C149.048 562.955 148.922 554.918 147.938 544.801C146.912 534.304 146.87 517.471 146.997 509.462C147.109 501.818 149.428 493.738 147.306 492.965C146.856 495.017 146.575 496.773 146.336 497.869C145.816 500.286 145.24 503.209 144.51 502.661C144.51 502.661 144.72 500.511 144.749 499.527C144.777 498.544 144.987 497.897 144.327 497.265C143.667 496.633 140.8 496.239 139.817 496.113C137.442 495.775 135.067 495.508 132.664 495.396C131.47 495.396 130.262 495.396 129.067 495.396C128.047 495.424 127.036 495.589 126.06 495.888C125.786 495.972 125.534 496.114 125.318 496.302C125.103 496.491 124.929 496.724 124.81 496.984C124.732 497.369 124.732 497.765 124.81 498.15C124.842 498.854 124.776 499.559 124.613 500.244C124.529 500.553 124.318 500.932 123.967 500.876C123.615 500.82 123.405 500.623 123.306 499.935C123.14 498.536 123.065 497.128 123.081 495.719C123.081 495.059 123.081 494.145 123.081 493.485C123.081 492.825 123.025 492.22 123.039 491.574Z" fill="#37474F"/>
<path d="M113.512 553.063C113.386 559.414 114.004 563.728 117.391 568.435C121.718 574.449 137.498 579.943 144.088 570.852C147.404 566.328 148.107 561.1 148.304 555.789C143.863 549.143 119.934 547.021 113.512 553.063Z" fill="#455A64"/>
<path d="M238.823 183.638C238.823 183.638 209.919 190.143 166.584 187.165C166.584 215.801 169.606 248.653 155.891 248.471L139.521 248.077C138.608 290.962 131.358 380.371 131.358 380.371C130.711 385.641 123.081 408.038 122.8 427.092C122.365 456.979 121.732 479.63 121.732 479.63C121.732 479.63 138.425 486.234 150.692 481.654C150.692 481.654 166.641 418.127 171.123 398.301C176.449 374.68 187.451 331.037 187.451 331.037L188.786 393.186C187.225 405.71 187.055 418.367 188.28 430.928C189.685 443.574 194.814 478.576 194.814 478.576C194.814 478.576 210.172 481.668 223.493 477.719C223.493 477.719 231.516 402.446 232.176 390.854C232.893 378.207 236.884 262.044 237.249 251.211C240.902 196.593 238.823 183.638 238.823 183.638Z" fill="#455A64"/>
<path d="M166.585 187.165C164.561 161.226 164.617 139.91 154.894 127.306L167.315 124.692C167.315 124.692 178.064 148.495 178.064 188.05L166.585 187.165Z" fill="#455A64"/>
<path d="M227.413 186.49C227.413 158.233 221.188 134.008 211.324 123.427L225.53 125.549C225.53 125.549 238.823 146.935 238.823 186.49H227.413Z" fill="#455A64"/>
<path d="M182.196 193.094C182.196 193.094 205.029 194.499 224.209 190.86L225.08 210.293L205.942 222.293L182.196 214.537V193.094Z" fill="#37474F"/>
<path d="M145.423 249.497C156.425 254.063 183.137 256.803 204.579 256.522C226.022 256.241 237.249 251.197 237.249 251.197L236.898 264.265C236.898 264.265 198.846 280.227 143.793 261.454L145.423 249.497Z" fill="#FB9119"/>
<path opacity="0.3" d="M145.423 249.497C156.425 254.063 183.137 256.803 204.579 256.522C226.022 256.241 237.249 251.197 237.249 251.197L236.898 264.265C236.898 264.265 198.846 280.227 143.793 261.454L145.423 249.497Z" fill="black"/>
<path d="M187.451 331.037L197.652 289.81C197.652 289.81 212.94 290.007 222.945 280.663C222.945 280.663 221.539 291.187 203.371 296.808L193.928 329.561L188.575 392.02L187.451 331.037Z" fill="#37474F"/>
<path d="M171.207 122.936L171.292 125.746C173.491 131.981 175.086 138.414 176.055 144.954C179.006 162.757 179.512 186.097 179.512 212.401V284.878C179.512 284.878 146.561 286.986 136.093 261.834L140.308 209.113C140.308 209.113 134.266 181.853 132.622 166.27C130.978 150.687 128.041 139.769 142.613 127.854L171.207 122.936Z" fill="#FB9119"/>
<path d="M137.273 194.373C138.917 202.719 140.337 209.113 140.337 209.113L140.182 211.178C150.369 217.839 165.474 222.11 179.526 221.464V206.738C164.182 207.441 147.32 202.214 137.273 194.373Z" fill="#F0F0F0"/>
<path d="M179.498 250.719V235.937C165.053 236.597 149.301 232.003 139.114 224.935L138.046 238.888C148.163 246.433 164.533 251.394 179.498 250.719Z" fill="#F0F0F0"/>
<path d="M203.132 122.598C212.351 128.15 219.018 137.103 221.694 147.526C226.134 164.977 226.795 178.748 227.413 201.16C228.031 223.572 227.118 286.1 227.118 286.1C227.118 286.1 236.954 281.787 239.118 277.108C239.118 277.108 241.928 197.703 238.823 169.558C235.717 141.413 225.53 125.549 225.53 125.549C225.53 125.549 218.251 122.57 203.132 122.598Z" fill="#FB9119"/>
<path d="M227.652 218.64C231.904 218.517 236.137 218.009 240.298 217.122C240.298 212.204 240.298 207.286 240.298 202.41C236.058 203.301 231.745 203.8 227.413 203.9C227.567 208.143 227.624 213.188 227.652 218.64Z" fill="#F0F0F0"/>
<path d="M240.059 246.447C240.144 241.923 240.242 236.921 240.298 231.665C236.162 232.51 231.957 232.981 227.736 233.071C227.736 238.059 227.736 243.047 227.736 247.81C231.875 247.71 235.998 247.254 240.059 246.447Z" fill="#F0F0F0"/>
<path d="M149.976 128.149C141.545 128.149 131.709 127.783 126.187 139.952C124.388 143.914 118.838 167.212 112.669 188.696C101.625 174.645 92.1964 160.242 90.9739 157.685C87.6999 150.842 87.6578 146.219 84.3135 139.151C82.3876 135.282 80.8983 131.21 79.8733 127.011C79.0724 124.2 76.5712 126.266 75.6579 127.531C74.1951 129.665 73.3892 132.18 73.3394 134.767C73.3394 136.594 73.3394 138.463 73.1989 140.261C73.0584 142.06 72.4542 141.989 70.9928 141.174C67.9858 139.488 65.3723 136.58 62.9273 134.247C60.4824 131.915 57.1381 129.723 54.4965 127.221C51.8548 124.72 50.5199 122.177 48.3701 119.648C46.7542 117.751 44.0001 115.292 41.8783 118.004C40.6137 119.648 41.78 121.559 42.342 123.203C42.9884 125.072 42.342 126.449 41.9907 128.289C41.3696 130.289 41.4289 132.439 42.1594 134.402C43.1711 136.383 44.0703 137.605 43.8034 139.938C43.5926 141.863 42.9041 143.704 43.1851 145.685C43.4099 147.315 44.5902 148.495 45.4052 149.9C46.8443 152.395 48.6276 154.675 50.7026 156.673C53.148 159.15 55.794 161.42 58.6135 163.46C65.3723 168.715 67.8875 170.359 70.1497 172.116C73.5361 174.729 77.0349 181.432 79.0021 185.127C82.8381 192.378 91.1144 212.584 102.159 227.043C108.552 235.375 117.25 238.031 124.922 228.616C128.941 223.67 132.355 215.829 134.575 209.9C143.105 187.179 149.273 168.49 149.273 168.49C149.273 168.49 156.158 147.259 149.976 128.149Z" fill="#FFA8A7"/>
<path d="M95.0629 164.275C92.8708 160.959 91.4095 158.556 90.9739 157.657C87.6999 150.814 87.6578 146.191 84.3135 139.123C82.3895 135.262 80.9003 131.2 79.8733 127.011C79.0724 124.2 76.5712 126.266 75.6579 127.531C74.1951 129.665 73.3892 132.18 73.3394 134.767C73.3394 136.594 73.3394 138.462 73.1989 140.261C73.0584 142.06 72.4542 141.989 70.9928 141.174C67.9858 139.488 65.3723 136.58 62.9273 134.247C60.4824 131.915 57.1381 129.723 54.4965 127.221C51.8548 124.72 50.5199 122.177 48.3701 119.648C46.7542 117.751 44.0001 115.292 41.8783 118.004C40.6137 119.648 41.78 121.559 42.342 123.203C42.9884 125.072 42.342 126.449 41.9907 128.289C41.3696 130.289 41.4289 132.439 42.1594 134.402C43.1711 136.383 44.0703 137.605 43.8034 139.938C43.5926 141.863 42.9041 143.704 43.1851 145.685C43.4099 147.315 44.5902 148.495 45.4052 149.9C46.8443 152.395 48.6276 154.675 50.7026 156.673C53.148 159.15 55.794 161.42 58.6135 163.46C65.3723 168.715 67.8875 170.359 70.1497 172.116C73.3675 174.603 76.6836 180.771 78.693 184.537C85.4096 180.237 91.4938 171.975 95.0629 164.275Z" fill="#455A64"/>
<path d="M92.9271 161.001L91.8732 159.427C91.8732 159.427 92.2948 157.586 94.009 160.214C95.5506 162.402 96.882 164.731 97.9856 167.17C98.1963 168.167 96.4961 176.767 91.1566 181.038C85.8171 185.31 81.1239 186.589 79.6345 186.406C78.145 186.223 77.7235 184.874 76.8242 183.09C75.9249 181.305 73.8453 179.113 74.4776 177.469L75.686 179.169C80.4806 177.939 84.7791 175.26 87.995 171.497C92.7304 165.469 92.9271 161.001 92.9271 161.001Z" fill="#FB9119"/>
<path opacity="0.2" d="M92.9271 161.001L91.8732 159.427C91.8732 159.427 92.2948 157.586 94.009 160.214C95.5506 162.402 96.882 164.731 97.9856 167.17C98.1963 168.167 96.4961 176.767 91.1566 181.038C85.8171 185.31 81.1239 186.589 79.6345 186.406C78.145 186.223 77.7235 184.874 76.8242 183.09C75.9249 181.305 73.8453 179.113 74.4776 177.469L75.686 179.169C80.4806 177.939 84.7791 175.26 87.995 171.497C92.7304 165.469 92.9271 161.001 92.9271 161.001Z" fill="black"/>
<path d="M112.669 188.696C116.711 196.344 119.154 204.734 119.85 213.356C121.255 200.556 117.362 188.851 113.765 184.902L112.669 188.696Z" fill="#F28F8F"/>
<path d="M151.367 126.336C143.329 127.601 141.615 127.741 136.486 129.512C131.358 131.282 127.676 133.039 122.941 148.481C118.388 163.376 114.145 180.322 114.145 180.322C114.145 180.322 118.641 192.097 140.842 194.373L152.603 161.577C152.603 161.577 156.229 141.793 151.367 126.336Z" fill="#EBEBEB"/>
<path d="M72.3839 144.42C72.491 145.303 72.3342 146.197 71.9334 146.99C71.5325 147.784 70.9054 148.44 70.1315 148.877C69.3575 149.315 68.4714 149.513 67.585 149.446C66.6986 149.38 65.8518 149.053 65.1514 148.505C64.4511 147.958 63.9287 147.215 63.6502 146.371C63.3717 145.527 63.3496 144.619 63.5868 143.763C63.8239 142.906 64.3096 142.139 64.9825 141.558C65.6555 140.977 66.4854 140.609 67.3675 140.5C67.9547 140.425 68.5509 140.468 69.1216 140.625C69.6923 140.782 70.2262 141.05 70.6926 141.415C71.159 141.779 71.5486 142.233 71.8389 142.748C72.1291 143.264 72.3144 143.833 72.3839 144.42Z" fill="#263238"/>
<path d="M329.595 158.57H324.621C323.339 158.57 322.109 159.079 321.203 159.986C320.296 160.892 319.787 162.122 319.787 163.404V215.984C319.787 222.319 317.27 228.395 312.79 232.875C308.311 237.355 302.235 239.871 295.9 239.871H90.707C84.3717 239.871 78.2958 237.355 73.8161 232.875C69.3363 228.395 66.8196 222.319 66.8196 215.984V147.526C66.8196 147.246 66.9307 146.978 67.1283 146.78C67.3259 146.583 67.594 146.472 67.8735 146.472C68.153 146.472 68.4211 146.583 68.6187 146.78C68.8163 146.978 68.9274 147.246 68.9274 147.526V215.492C68.9273 218.411 69.5024 221.301 70.6197 223.997C71.737 226.693 73.3747 229.143 75.439 231.206C77.5034 233.269 79.954 234.905 82.6509 236.021C85.3478 237.136 88.2381 237.709 91.1567 237.708H295.45C298.368 237.709 301.259 237.136 303.956 236.021C306.653 234.905 309.103 233.269 311.168 231.206C313.232 229.143 314.87 226.693 315.987 223.997C317.104 221.301 317.679 218.411 317.679 215.492V163.404C317.679 161.563 318.411 159.797 319.712 158.495C321.014 157.194 322.78 156.462 324.621 156.462H333.178C332.043 157.261 330.845 157.966 329.595 158.57Z" fill="#37474F"/>
<path d="M62.5901 145.91C59.4285 144.505 59.0913 141.793 61.8454 139.727C63.4028 138.679 65.1859 138.015 67.0492 137.788C68.9125 137.56 70.8031 137.777 72.5666 138.42C75.7281 139.826 76.0654 142.537 73.3113 144.603C71.7539 145.651 69.9708 146.315 68.1075 146.543C66.2442 146.77 64.3536 146.553 62.5901 145.91Z" fill="#37474F"/>
<path d="M62.2248 144.322C58.9649 142.917 58.6136 140.107 61.452 137.943C63.0547 136.855 64.8915 136.161 66.8131 135.916C68.7346 135.672 70.6866 135.885 72.5105 136.537C75.7704 137.943 76.1217 140.753 73.2833 142.917C71.6806 144.005 69.8438 144.699 67.9222 144.943C66.0007 145.187 64.0487 144.974 62.2248 144.322Z" fill="#263238"/>
<path d="M61.8595 142.678C58.4871 141.273 58.1358 138.294 61.0585 136.102C62.7124 134.985 64.6071 134.276 66.5877 134.031C68.5683 133.787 70.5786 134.015 72.4542 134.697C75.8125 136.102 76.1778 139.081 73.2551 141.273C71.6013 142.389 69.7066 143.099 67.726 143.343C65.7454 143.587 63.7351 143.359 61.8595 142.678Z" fill="#37474F"/>
<path d="M61.48 140.978C58.0093 139.573 57.6299 136.467 60.651 134.205C62.3588 133.066 64.3111 132.345 66.3495 132.1C68.388 131.856 70.4553 132.096 72.3839 132.8C75.8546 134.205 76.234 137.31 73.2129 139.587C71.5039 140.724 69.5511 141.442 67.5127 141.684C65.4742 141.926 63.4075 141.684 61.48 140.978Z" fill="#263238"/>
<path d="M61.1428 139.193C57.6019 137.69 57.2225 134.598 60.2998 132.28C62.0438 131.12 64.0371 130.388 66.1174 130.144C68.1977 129.9 70.3063 130.15 72.2715 130.875C75.8125 132.378 76.1919 135.484 73.1146 137.788C71.3714 138.95 69.3781 139.683 67.2974 139.927C65.2167 140.172 63.1077 139.92 61.1428 139.193Z" fill="#37474F"/>
<path d="M60.7774 86.4021C55.1302 87.0908 49.9876 89.994 46.4804 94.4735C42.9733 98.953 41.3886 104.642 42.075 110.289C44.1406 127.151 58.4309 128.303 59.2599 135.118C59.391 135.768 59.6932 136.371 60.1354 136.865C60.5775 137.359 61.1436 137.726 61.7751 137.929C63.4863 138.546 65.3186 138.754 67.1247 138.534C68.9307 138.315 70.6599 137.674 72.1731 136.664C72.7384 136.323 73.202 135.837 73.5158 135.256C73.8296 134.676 73.9822 134.021 73.9576 133.362C73.1286 126.547 86.7304 122.036 84.6789 105.133C84.3413 102.333 83.455 99.6265 82.0708 97.1692C80.6865 94.712 78.8313 92.5517 76.6114 90.8121C74.3915 89.0724 71.8504 87.7875 69.1334 87.0308C66.4165 86.2741 63.577 86.0604 60.7774 86.4021Z" fill="#FB9119"/>
<g opacity="0.6">
<path opacity="0.6" d="M60.7774 86.4021C55.1302 87.0908 49.9876 89.994 46.4804 94.4735C42.9733 98.953 41.3886 104.642 42.075 110.289C44.1406 127.151 58.4309 128.303 59.2599 135.118C59.391 135.768 59.6932 136.371 60.1354 136.865C60.5775 137.359 61.1436 137.726 61.7751 137.929C63.4863 138.546 65.3186 138.754 67.1247 138.534C68.9307 138.315 70.6599 137.674 72.1731 136.664C72.7384 136.323 73.202 135.837 73.5158 135.256C73.8296 134.676 73.9822 134.021 73.9576 133.362C73.1286 126.547 86.7304 122.036 84.6789 105.133C84.3413 102.333 83.455 99.6265 82.0708 97.1692C80.6865 94.712 78.8313 92.5517 76.6114 90.8121C74.3915 89.0724 71.8504 87.7875 69.1334 87.0308C66.4165 86.2741 63.577 86.0604 60.7774 86.4021Z" fill="white"/>
</g>
<path d="M63.0117 136.776C60.7073 135.793 60.4544 133.769 62.4637 132.266C63.5996 131.505 64.8987 131.022 66.256 130.856C67.6132 130.69 68.9904 130.845 70.2763 131.31C72.5807 132.294 72.8337 134.317 70.8243 135.821C69.6898 136.585 68.3905 137.07 67.0327 137.236C65.6749 137.402 64.297 137.245 63.0117 136.776Z" fill="#FB9119"/>
<path d="M69.3629 133.165C69.1748 133.189 68.9848 133.137 68.8347 133.021C68.6846 132.906 68.5865 132.735 68.562 132.547C68.0647 128.445 68.0647 124.298 68.562 120.196C68.7002 119.012 68.9161 117.838 69.2084 116.683C68.527 116.525 67.8633 116.299 67.2271 116.008C66.0955 115.489 65.0486 114.802 64.1217 113.971C63.4208 114.997 62.5734 115.916 61.6065 116.697C61.067 117.132 60.4829 117.509 59.8642 117.821C60.429 118.873 60.922 119.962 61.3396 121.081C62.8061 124.943 63.8062 128.967 64.3185 133.067C64.3345 133.258 64.2763 133.448 64.1559 133.597C64.0355 133.746 63.8622 133.843 63.6721 133.868C63.4789 133.883 63.2872 133.823 63.1376 133.7C62.9881 133.577 62.8925 133.4 62.8712 133.207C62.3663 129.233 61.3948 125.333 59.9766 121.587C59.5657 120.474 59.0725 119.394 58.5012 118.355C57.7955 118.591 57.0428 118.652 56.3083 118.532C55.5738 118.412 54.8796 118.115 54.2858 117.666C53.8408 117.335 53.5285 116.856 53.4049 116.315C53.2813 115.774 53.3545 115.207 53.6113 114.716C53.789 114.375 54.0646 114.095 54.4027 113.912C54.7407 113.729 55.1258 113.652 55.5082 113.69C56.6745 113.788 57.9391 114.814 59.1194 116.613C59.6829 116.34 60.2113 116 60.6932 115.601C61.6383 114.859 62.4549 113.966 63.11 112.959C62.6028 112.44 62.2047 111.824 61.9393 111.148C61.6738 110.473 61.5464 109.751 61.5644 109.025C61.6366 108.591 61.8471 108.193 62.1644 107.889C62.4817 107.585 62.8888 107.391 63.325 107.337C63.7613 107.284 64.2031 107.372 64.5848 107.59C64.9664 107.808 65.2673 108.144 65.4426 108.547C65.6464 109.25 65.703 109.987 65.6087 110.712C65.5144 111.437 65.2713 112.135 64.8946 112.762C65.7693 113.589 66.7762 114.263 67.8735 114.758C68.4397 115.023 69.0334 115.226 69.6439 115.362C70.3606 113.339 71.3301 112.032 72.4542 111.666C72.8172 111.551 73.2061 111.543 73.5731 111.646C73.9401 111.748 74.2692 111.956 74.5198 112.243C74.8782 112.664 75.0749 113.2 75.0749 113.753C75.0749 114.307 74.8782 114.842 74.5198 115.264C74.0565 115.835 73.4617 116.285 72.7863 116.577C72.1109 116.868 71.375 116.991 70.6416 116.936C70.3246 118.087 70.099 119.262 69.9671 120.449C69.5106 124.421 69.5106 128.434 69.9671 132.406C69.981 132.501 69.9761 132.598 69.9525 132.691C69.929 132.784 69.8873 132.872 69.8299 132.949C69.7725 133.026 69.7004 133.091 69.6179 133.14C69.5353 133.189 69.4439 133.222 69.3489 133.235L69.3629 133.165ZM55.2975 115.095C55.1851 115.095 55.0445 115.179 54.9181 115.418C54.623 115.938 55.1007 116.402 55.2553 116.542C55.6008 116.79 55.9952 116.96 56.412 117.043C56.8289 117.125 57.2585 117.117 57.6722 117.02C56.7307 115.699 55.9017 115.123 55.4099 115.095H55.2975ZM71.1615 115.376C71.5872 115.38 72.0083 115.287 72.3929 115.105C72.7775 114.922 73.1155 114.655 73.3816 114.322C73.494 114.168 73.8594 113.592 73.4519 113.156C73.391 113.068 73.3039 113.001 73.2029 112.966C73.1019 112.931 72.9923 112.928 72.8898 112.959C72.4261 113.128 71.7657 113.887 71.1615 115.39V115.376ZM63.5035 108.744C63.1381 108.744 63.0398 108.955 62.9976 109.193C62.9975 110.037 63.2962 110.854 63.8407 111.498C64.213 110.739 64.3075 109.874 64.1077 109.053C64.0662 108.934 63.9794 108.836 63.8663 108.781C63.7531 108.726 63.6228 108.717 63.5035 108.758V108.744Z" fill="white"/>
<path d="M74.5198 79.6012C74.3447 79.5333 74.185 79.4309 74.0501 79.3001C73.9152 79.1694 73.8079 79.0129 73.7346 78.84C73.6612 78.6671 73.6233 78.4812 73.623 78.2934C73.6227 78.1056 73.6601 77.9196 73.7329 77.7464L76.5432 70.8894C76.6862 70.5476 76.9583 70.2762 77.3004 70.1341C77.6425 69.992 78.0269 69.9907 78.3699 70.1306C78.5433 70.1986 78.7014 70.3005 78.8351 70.4302C78.9688 70.56 79.0753 70.715 79.1485 70.8863C79.2218 71.0576 79.2602 71.2417 79.2616 71.428C79.263 71.6142 79.2274 71.7989 79.1567 71.9713L76.3465 78.8424C76.2785 79.0176 76.1761 79.1773 76.0454 79.3121C75.9147 79.447 75.7582 79.5543 75.5853 79.6277C75.4124 79.701 75.2265 79.739 75.0387 79.7392C74.8508 79.7395 74.6648 79.7022 74.4917 79.6293L74.5198 79.6012Z" fill="#E0E0E0"/>
<path d="M58.2764 77.5778C58.0462 77.486 57.8443 77.335 57.6913 77.14C57.5383 76.9451 57.4396 76.7132 57.4052 76.4677L56.3794 69.1329C56.3273 68.7602 56.4253 68.3821 56.6519 68.0817C56.8785 67.7813 57.2152 67.5832 57.5879 67.531C57.9605 67.4789 58.3386 67.5769 58.6391 67.8035C58.9395 68.0301 59.1375 68.3668 59.1897 68.7395L60.2014 76.0743C60.2291 76.2591 60.2197 76.4475 60.1737 76.6286C60.1277 76.8097 60.0461 76.9798 59.9336 77.129C59.821 77.2781 59.6799 77.4034 59.5184 77.4973C59.3569 77.5913 59.1783 77.6521 58.993 77.6762C58.7496 77.7065 58.5026 77.6726 58.2764 77.5778Z" fill="#E0E0E0"/>
<path d="M43.1992 83.9571C42.9725 83.8646 42.7739 83.7145 42.6231 83.5216L38.0705 77.6762C37.9561 77.5286 37.8718 77.3598 37.8226 77.1797C37.7734 76.9995 37.7602 76.8114 37.7837 76.6261C37.8072 76.4409 37.8669 76.262 37.9595 76.0998C38.0521 75.9376 38.1758 75.7953 38.3234 75.6809C38.471 75.5665 38.6397 75.4823 38.8199 75.4331C39 75.3839 39.1881 75.3706 39.3734 75.3941C39.5587 75.4176 39.7375 75.4773 39.8997 75.5699C40.0619 75.6625 40.2043 75.7862 40.3187 75.9338L44.8713 81.7651C44.9879 81.9118 45.074 82.0804 45.1245 82.2609C45.175 82.4414 45.1888 82.6301 45.1653 82.8161C45.1417 83.002 45.0812 83.1813 44.9873 83.3435C44.8933 83.5057 44.7679 83.6474 44.6184 83.7604C44.4213 83.9175 44.1855 84.0187 43.9358 84.0533C43.6861 84.0879 43.4317 84.0547 43.1992 83.9571Z" fill="#E0E0E0"/>
<path d="M26.4781 94.2287C26.1297 94.0852 25.8525 93.8092 25.7076 93.4614C25.5626 93.1135 25.5618 92.7224 25.7053 92.3739C25.8488 92.0255 26.1248 91.7483 26.4726 91.6034C26.8205 91.4584 27.2116 91.4576 27.5601 91.6011L34.4172 94.4114C34.5897 94.4815 34.7467 94.5849 34.8793 94.7157C35.0118 94.8465 35.1173 95.0022 35.1898 95.1737C35.2622 95.3453 35.3001 95.5295 35.3013 95.7157C35.3026 95.902 35.2671 96.0866 35.197 96.2591C35.1269 96.4317 35.0235 96.5887 34.8927 96.7213C34.7619 96.8538 34.6062 96.9593 34.4346 97.0317C34.2631 97.1042 34.0789 97.1421 33.8927 97.1433C33.7064 97.1446 33.5218 97.1091 33.3492 97.039L26.4922 94.2287H26.4781Z" fill="#E0E0E0"/>
<path d="M23.9911 114.266C23.7635 114.172 23.5646 114.02 23.4141 113.826C23.2637 113.631 23.1671 113.4 23.134 113.156C23.1062 112.971 23.1156 112.783 23.1616 112.602C23.2076 112.421 23.2893 112.25 23.4018 112.101C23.5143 111.952 23.6555 111.827 23.817 111.733C23.9785 111.639 24.1571 111.578 24.3424 111.554L31.6772 110.528C32.0499 110.476 32.428 110.574 32.7284 110.801C33.0288 111.027 33.2269 111.364 33.2791 111.737C33.3312 112.109 33.2332 112.488 33.0066 112.788C32.78 113.088 32.4433 113.286 32.0706 113.339L24.7358 114.364C24.4833 114.404 24.2246 114.37 23.9911 114.266Z" fill="#E0E0E0"/>
<path d="M93.9247 104.528C93.6211 104.422 93.3634 104.214 93.1946 103.94C93.0258 103.666 92.9562 103.342 92.9973 103.023C93.0384 102.704 93.1879 102.409 93.4206 102.187C93.6533 101.964 93.9553 101.829 94.276 101.802L101.611 100.777C101.797 100.749 101.986 100.759 102.168 100.806C102.35 100.853 102.521 100.936 102.67 101.05C102.819 101.163 102.944 101.306 103.038 101.469C103.131 101.632 103.19 101.813 103.213 101.999C103.24 102.184 103.231 102.372 103.185 102.553C103.139 102.735 103.057 102.905 102.945 103.054C102.832 103.203 102.691 103.328 102.53 103.422C102.368 103.516 102.19 103.577 102.004 103.601L94.6694 104.613C94.4182 104.657 94.1596 104.628 93.9247 104.528Z" fill="#E0E0E0"/>
<path d="M87.5736 89.4653C87.3401 89.371 87.1363 89.2157 86.9834 89.0157C86.8623 88.8682 86.7725 88.6977 86.7195 88.5144C86.6665 88.3311 86.6514 88.1389 86.675 87.9496C86.6987 87.7603 86.7607 87.5778 86.8572 87.4132C86.9537 87.2486 87.0827 87.1054 87.2364 86.9923L93.0817 82.4396C93.2294 82.3252 93.3981 82.241 93.5782 82.1918C93.7584 82.1426 93.9465 82.1293 94.1318 82.1528C94.317 82.1763 94.4959 82.2361 94.6581 82.3287C94.8203 82.4213 94.9626 82.5449 95.077 82.6925C95.1914 82.8402 95.2757 83.0089 95.3249 83.189C95.3741 83.3692 95.3873 83.5573 95.3638 83.7426C95.3403 83.9278 95.2806 84.1067 95.188 84.2689C95.0954 84.4311 94.9717 84.5734 94.8241 84.6878L88.9787 89.2405C88.7857 89.3996 88.5537 89.5044 88.3067 89.5439C88.0597 89.5834 87.8066 89.5563 87.5736 89.4653Z" fill="#E0E0E0"/>
<path d="M136.079 251.506L128.632 255.609C128.148 255.91 127.743 256.322 127.45 256.811C127.157 257.3 126.984 257.851 126.946 258.419C126.763 265.066 126.145 291.201 127.213 303.693C127.288 304.264 127.488 304.812 127.799 305.298C128.11 305.784 128.524 306.195 129.011 306.503C133.227 308.878 144.664 315.145 149.906 316.592C151.103 316.796 152.333 316.665 153.461 316.213L158.744 314.091C159.236 313.861 159.657 313.501 159.961 313.051C160.266 312.601 160.442 312.076 160.472 311.534C160.472 298.269 162.889 280.353 165.081 265.909C165.14 265.376 165.038 264.838 164.788 264.364C164.537 263.891 164.15 263.503 163.676 263.253L139.353 251.394C138.83 251.182 138.268 251.083 137.704 251.102C137.14 251.122 136.586 251.259 136.079 251.506Z" fill="#455A64"/>
<path d="M127.213 303.637C126.145 291.145 126.763 265.009 126.946 258.363C126.919 258.151 126.955 257.936 127.049 257.745C127.142 257.553 127.29 257.393 127.474 257.284C127.657 257.175 127.868 257.122 128.082 257.131C128.295 257.141 128.501 257.213 128.674 257.337L151.325 268.578C151.798 268.844 152.189 269.235 152.454 269.709C152.719 270.182 152.849 270.72 152.828 271.262C152.35 277.15 150.903 299.295 151.634 314.934C151.663 315.16 151.637 315.391 151.557 315.605C151.478 315.819 151.347 316.01 151.177 316.162C151.007 316.315 150.802 316.423 150.581 316.478C150.359 316.534 150.127 316.534 149.906 316.48C144.664 315.074 133.241 308.765 129.011 306.391C128.53 306.089 128.121 305.686 127.81 305.211C127.5 304.735 127.296 304.198 127.213 303.637Z" fill="#37474F"/>
<path d="M150.13 316.55C151.242 316.673 152.367 316.518 153.404 316.1L158.702 313.978C159.185 313.74 159.597 313.377 159.895 312.928C160.194 312.479 160.369 311.959 160.402 311.421C161.442 297.805 162.819 280.255 165.025 265.81C165.088 265.325 164.995 264.833 164.758 264.405L152.505 270.026C152.707 270.43 152.799 270.881 152.772 271.332C152.28 277.248 150.847 299.435 151.578 315.018C151.596 315.217 151.571 315.417 151.506 315.605C151.441 315.793 151.336 315.966 151.2 316.111C151.063 316.255 150.897 316.37 150.712 316.445C150.528 316.521 150.329 316.557 150.13 316.55Z" fill="#263238"/>
<path d="M130.107 262.635L149.948 271.895L148.992 288.756L129.573 280.424C129.573 280.424 129.756 268.368 130.107 262.635Z" fill="#263238"/>
<path d="M149.062 287.73L130.458 279.763C130.458 279.763 130.627 268.747 130.936 263.056L149.906 271.895L149.062 287.73Z" fill="#FB9119"/>
<path opacity="0.4" d="M149.062 287.73L130.458 279.763C130.458 279.763 130.627 268.747 130.936 263.056L149.906 271.895L149.062 287.73Z" fill="black"/>
<path d="M140.758 269.112L136.599 275.126L139.212 276.026L137.175 281.337L141.826 275.07L139.212 274.087L140.758 269.112Z" fill="#FAFAFA"/>
<path d="M147.742 292.62L147.615 294.292C147.618 294.403 147.592 294.512 147.54 294.609C147.487 294.706 147.41 294.788 147.317 294.847C147.223 294.905 147.115 294.938 147.005 294.941C146.895 294.945 146.785 294.92 146.688 294.869L143.681 293.632C143.437 293.516 143.232 293.333 143.09 293.103C142.948 292.874 142.875 292.609 142.88 292.339L142.978 290.639C142.972 290.529 142.996 290.42 143.046 290.322C143.097 290.224 143.173 290.142 143.266 290.083C143.359 290.024 143.466 289.991 143.576 289.988C143.686 289.984 143.795 290.01 143.891 290.063L146.941 291.328C147.184 291.444 147.389 291.627 147.531 291.856C147.673 292.085 147.746 292.351 147.742 292.62Z" fill="#263238"/>
<path d="M147.756 298.058L147.671 299.73C147.676 299.84 147.651 299.949 147.601 300.046C147.55 300.143 147.475 300.226 147.383 300.285C147.291 300.345 147.185 300.379 147.075 300.386C146.966 300.392 146.856 300.369 146.758 300.321L143.723 299.126C143.481 299.014 143.276 298.836 143.132 298.612C142.988 298.388 142.91 298.128 142.908 297.862V296.147C142.901 296.038 142.923 295.929 142.972 295.831C143.02 295.733 143.094 295.65 143.186 295.59C143.277 295.53 143.383 295.496 143.492 295.49C143.601 295.484 143.71 295.507 143.807 295.557L146.87 296.78C147.128 296.882 147.349 297.058 147.506 297.285C147.664 297.513 147.75 297.782 147.756 298.058Z" fill="#263238"/>
<path d="M147.784 303.496V305.168C147.791 305.279 147.768 305.39 147.718 305.489C147.669 305.588 147.594 305.673 147.502 305.734C147.409 305.795 147.302 305.831 147.191 305.838C147.08 305.844 146.97 305.822 146.87 305.772L143.835 304.634C143.586 304.529 143.372 304.353 143.22 304.129C143.068 303.904 142.984 303.641 142.978 303.37V301.655C142.971 301.546 142.993 301.437 143.042 301.339C143.091 301.242 143.165 301.158 143.256 301.098C143.347 301.038 143.453 301.004 143.562 300.998C143.671 300.992 143.78 301.015 143.878 301.065L146.955 302.231C147.199 302.341 147.407 302.519 147.554 302.743C147.701 302.967 147.781 303.228 147.784 303.496Z" fill="#263238"/>
<path d="M147.812 309.004V310.676C147.82 310.786 147.799 310.897 147.751 310.996C147.703 311.096 147.63 311.181 147.539 311.243C147.448 311.306 147.343 311.343 147.233 311.352C147.123 311.361 147.012 311.342 146.912 311.295L143.849 310.199C143.601 310.097 143.387 309.927 143.233 309.708C143.079 309.489 142.99 309.23 142.978 308.962V307.248C142.967 307.138 142.985 307.028 143.031 306.928C143.077 306.828 143.149 306.742 143.239 306.679C143.329 306.616 143.435 306.578 143.545 306.569C143.654 306.561 143.764 306.582 143.863 306.63L146.969 307.754C147.214 307.86 147.423 308.035 147.572 308.256C147.722 308.478 147.805 308.737 147.812 309.004Z" fill="#263238"/>
<path d="M140.997 289.543L140.913 291.285C140.919 291.395 140.895 291.505 140.845 291.603C140.794 291.7 140.718 291.783 140.625 291.842C140.532 291.9 140.425 291.933 140.315 291.937C140.205 291.94 140.096 291.914 139.999 291.862L137.02 290.625C136.772 290.513 136.561 290.331 136.414 290.102C136.266 289.872 136.189 289.605 136.191 289.332V287.562C136.182 287.452 136.203 287.343 136.252 287.244C136.301 287.146 136.375 287.062 136.468 287.003C136.56 286.944 136.667 286.911 136.777 286.908C136.887 286.905 136.995 286.932 137.091 286.986L140.126 288.25C140.382 288.356 140.602 288.535 140.757 288.765C140.912 288.995 140.996 289.266 140.997 289.543Z" fill="#263238"/>
<path d="M140.983 294.953L140.899 296.695C140.905 296.805 140.881 296.915 140.831 297.012C140.78 297.11 140.704 297.193 140.611 297.252C140.518 297.31 140.411 297.343 140.301 297.347C140.191 297.35 140.082 297.324 139.985 297.271L137.006 296.049C136.755 295.939 136.541 295.758 136.392 295.529C136.242 295.299 136.162 295.03 136.163 294.756V292.986C136.154 292.876 136.175 292.766 136.224 292.668C136.272 292.569 136.347 292.486 136.44 292.427C136.532 292.368 136.639 292.335 136.749 292.332C136.858 292.329 136.967 292.356 137.063 292.41L140.098 293.66C140.357 293.763 140.58 293.941 140.737 294.172C140.895 294.402 140.98 294.674 140.983 294.953Z" fill="#263238"/>
<path d="M140.955 300.349V302.091C140.962 302.2 140.94 302.309 140.891 302.407C140.842 302.505 140.769 302.588 140.677 302.648C140.586 302.708 140.48 302.743 140.371 302.748C140.262 302.754 140.153 302.731 140.056 302.681L137.049 301.473C136.8 301.361 136.589 301.179 136.442 300.95C136.295 300.72 136.217 300.453 136.22 300.18V298.41C136.209 298.301 136.229 298.192 136.276 298.093C136.323 297.995 136.395 297.911 136.486 297.85C136.577 297.79 136.682 297.755 136.791 297.749C136.9 297.744 137.009 297.768 137.105 297.819L140.14 299.07C140.384 299.183 140.59 299.363 140.735 299.59C140.879 299.817 140.956 300.08 140.955 300.349Z" fill="#263238"/>
<path d="M140.927 305.758V307.501C140.931 307.609 140.907 307.716 140.857 307.812C140.808 307.908 140.733 307.989 140.642 308.047C140.551 308.105 140.447 308.139 140.339 308.144C140.231 308.149 140.124 308.126 140.027 308.077L137.02 306.883C136.773 306.775 136.563 306.598 136.413 306.374C136.264 306.15 136.182 305.887 136.177 305.618V303.833C136.17 303.724 136.192 303.615 136.241 303.517C136.29 303.419 136.364 303.336 136.455 303.276C136.546 303.216 136.652 303.182 136.761 303.176C136.871 303.17 136.979 303.193 137.077 303.243L140.112 304.48C140.356 304.593 140.562 304.773 140.706 305C140.851 305.226 140.927 305.49 140.927 305.758Z" fill="#263238"/>
<path d="M134.266 286.522V288.335C134.273 288.443 134.25 288.551 134.2 288.647C134.15 288.744 134.075 288.825 133.983 288.882C133.891 288.94 133.786 288.972 133.677 288.974C133.569 288.977 133.462 288.95 133.367 288.897L130.402 287.66C130.153 287.548 129.943 287.367 129.795 287.137C129.648 286.908 129.571 286.64 129.573 286.367V284.513C129.565 284.407 129.586 284.301 129.633 284.206C129.681 284.111 129.753 284.03 129.842 283.973C129.931 283.915 130.034 283.883 130.14 283.879C130.246 283.875 130.351 283.9 130.444 283.951L133.451 285.229C133.697 285.343 133.905 285.526 134.05 285.755C134.195 285.985 134.27 286.251 134.266 286.522Z" fill="#263238"/>
<path d="M134.294 291.735V293.548C134.304 293.656 134.284 293.764 134.236 293.861C134.188 293.958 134.114 294.04 134.023 294.098C133.931 294.156 133.826 294.188 133.718 294.19C133.609 294.192 133.503 294.164 133.409 294.11L130.444 292.873C130.193 292.764 129.979 292.583 129.829 292.353C129.68 292.123 129.6 291.855 129.601 291.581V289.726C129.592 289.618 129.612 289.51 129.66 289.412C129.708 289.315 129.781 289.233 129.873 289.175C129.964 289.117 130.07 289.085 130.178 289.083C130.286 289.081 130.393 289.109 130.486 289.164L133.493 290.442C133.737 290.558 133.942 290.742 134.084 290.971C134.226 291.2 134.299 291.465 134.294 291.735Z" fill="#263238"/>
<path d="M134.308 296.99V298.803C134.315 298.911 134.292 299.019 134.242 299.116C134.192 299.212 134.117 299.293 134.025 299.351C133.933 299.408 133.828 299.44 133.719 299.442C133.611 299.445 133.504 299.418 133.409 299.365L130.444 298.128C130.199 298.011 129.991 297.828 129.842 297.6C129.694 297.372 129.61 297.108 129.601 296.836V294.981C129.592 294.873 129.612 294.765 129.66 294.668C129.708 294.571 129.781 294.488 129.873 294.43C129.964 294.372 130.07 294.341 130.178 294.339C130.286 294.337 130.393 294.364 130.486 294.419L133.493 295.698C133.74 295.811 133.947 295.994 134.092 296.224C134.237 296.453 134.312 296.719 134.308 296.99Z" fill="#263238"/>
<path d="M134.323 302.246V304.058C134.332 304.166 134.312 304.274 134.264 304.372C134.216 304.469 134.142 304.551 134.051 304.609C133.96 304.667 133.854 304.699 133.746 304.701C133.638 304.703 133.531 304.675 133.437 304.62L130.458 303.384C130.21 303.272 129.999 303.09 129.852 302.861C129.704 302.631 129.627 302.364 129.629 302.091V300.236C129.621 300.13 129.642 300.024 129.69 299.929C129.737 299.834 129.809 299.754 129.898 299.696C129.987 299.639 130.09 299.606 130.196 299.602C130.302 299.599 130.407 299.623 130.501 299.674L133.508 300.939C133.75 301.062 133.953 301.248 134.097 301.479C134.241 301.709 134.319 301.974 134.323 302.246Z" fill="#263238"/>
<path d="M473.636 523.288L460.666 518.876C459.556 506.454 461.158 476.356 481.35 458.694C501.851 440.764 515.228 452.258 514.834 460.099C514.413 468.656 496.02 476.68 486.732 488.202C476.586 500.736 473.425 509.307 473.636 523.288Z" fill="#FB9119"/>
<path opacity="0.5" d="M473.636 523.288L460.666 518.876C459.556 506.454 461.158 476.356 481.35 458.694C501.851 440.764 515.228 452.258 514.834 460.099C514.413 468.656 496.02 476.68 486.732 488.202C476.586 500.736 473.425 509.307 473.636 523.288Z" fill="white"/>
<path d="M464.882 520.998C464.698 520.994 464.523 520.918 464.394 520.787C464.265 520.656 464.193 520.479 464.193 520.295C464.376 486.881 489.191 457.64 501.556 455.743C501.648 455.729 501.742 455.734 501.833 455.756C501.923 455.779 502.008 455.819 502.083 455.874C502.158 455.93 502.222 455.999 502.27 456.079C502.318 456.159 502.35 456.248 502.364 456.34C502.378 456.432 502.373 456.526 502.351 456.617C502.328 456.708 502.288 456.793 502.232 456.868C502.177 456.943 502.107 457.006 502.027 457.054C501.947 457.102 501.859 457.134 501.767 457.148C489.654 459.003 465.767 488.75 465.598 520.309C465.596 520.401 465.576 520.492 465.539 520.577C465.502 520.661 465.449 520.738 465.383 520.802C465.316 520.866 465.238 520.916 465.152 520.95C465.066 520.983 464.974 520.999 464.882 520.998Z" fill="white"/>
<path d="M504.45 493.33C493.209 489.635 468.76 501.93 464.025 520.028L473.636 523.274C481.397 516.932 490.794 512.913 500.741 511.682C516.577 510.094 515.649 497.026 504.45 493.33Z" fill="#FB9119"/>
<path opacity="0.65" d="M504.45 493.33C493.209 489.635 468.76 501.93 464.025 520.028L473.636 523.274C481.397 516.932 490.794 512.913 500.741 511.682C516.577 510.094 515.649 497.026 504.45 493.33Z" fill="white"/>
<path d="M468.409 522.473C468.297 522.477 468.186 522.453 468.085 522.403C467.921 522.313 467.799 522.163 467.744 521.985C467.688 521.807 467.705 521.614 467.79 521.447C477.415 502.857 498.31 497.363 506.811 499.64C506.9 499.662 506.984 499.703 507.058 499.758C507.131 499.814 507.192 499.884 507.238 499.964C507.284 500.044 507.313 500.132 507.324 500.224C507.336 500.315 507.328 500.408 507.303 500.497C507.253 500.676 507.136 500.828 506.976 500.923C506.816 501.017 506.626 501.046 506.446 501.002C498.324 498.825 478.343 504.164 469.041 522.08C468.984 522.199 468.895 522.299 468.782 522.369C468.67 522.439 468.541 522.475 468.409 522.473Z" fill="white"/>
<path d="M457.561 315.018V522.81C457.623 523.502 457.87 524.164 458.275 524.727C458.681 525.291 459.23 525.735 459.865 526.014C461.586 526.893 463.491 527.352 465.423 527.352C467.355 527.352 469.26 526.893 470.98 526.014C471.614 525.733 472.162 525.288 472.567 524.725C472.972 524.161 473.219 523.501 473.284 522.81V315.018H457.561Z" fill="#455A64"/>
<path d="M457.561 353.969L473.284 344.892V315.018H457.561V353.969Z" fill="#37474F"/>
<path d="M435.599 350.624L544.047 288.011V93.9195L435.599 156.533V350.624Z" fill="#FB9119"/>
<path d="M544.047 93.9195L495.247 65.7465L386.798 128.36L435.599 156.533L544.047 93.9195Z" fill="#FB9119"/>
<path opacity="0.2" d="M544.047 93.9195L495.247 65.7465L386.798 128.36L435.599 156.533L544.047 93.9195Z" fill="white"/>
<path d="M386.798 128.359V322.451L435.599 350.624V156.533L386.798 128.359Z" fill="#FB9119"/>
<path opacity="0.2" d="M386.798 128.359V322.451L435.599 350.624V156.533L386.798 128.359Z" fill="black"/>
<path d="M504.745 144.378L464.53 248.991L489.823 228.532L470.151 302.498L515.115 190.031L489.823 209.759L504.745 144.378Z" fill="#FAFAFA"/>
<path d="M443.805 158.092C445.294 157.235 446.517 157.938 446.517 159.666C446.464 160.606 446.192 161.521 445.721 162.336C445.25 163.152 444.593 163.845 443.805 164.359C442.301 165.23 441.093 164.528 441.093 162.799C441.144 161.857 441.416 160.94 441.887 160.122C442.358 159.304 443.015 158.609 443.805 158.092Z" fill="#37474F"/>
<path d="M443.805 333.426C445.294 332.554 446.517 333.257 446.517 334.985C446.464 335.925 446.192 336.84 445.721 337.656C445.25 338.471 444.593 339.164 443.805 339.678C442.301 340.55 441.093 339.847 441.093 338.119C441.141 337.178 441.413 336.262 441.884 335.446C442.355 334.63 443.014 333.938 443.805 333.426Z" fill="#37474F"/>
<path d="M535.911 104.88C537.415 104.008 538.623 104.711 538.623 106.439C538.575 107.38 538.304 108.296 537.832 109.112C537.361 109.928 536.702 110.62 535.911 111.132C534.422 112.004 533.214 111.301 533.214 109.573C533.263 108.634 533.533 107.719 534.002 106.904C534.47 106.088 535.125 105.395 535.911 104.88Z" fill="#37474F"/>
<path d="M535.911 280.199C537.415 279.328 538.623 280.03 538.623 281.759C538.575 282.7 538.304 283.616 537.832 284.431C537.361 285.247 536.702 285.94 535.911 286.452C534.422 287.323 533.214 286.62 533.214 284.892C533.263 283.953 533.533 283.038 534.002 282.223C534.47 281.408 535.125 280.714 535.911 280.199Z" fill="#37474F"/>
<path d="M544.047 93.9196V231.665L603.695 197.225V3.13351L495.247 65.7465L544.047 93.9196Z" fill="#FB9119"/>
<path d="M603.695 3.13343L495.247 65.7465L489.823 62.613L598.272 -3.05176e-05L603.695 3.13343Z" fill="#FB9119"/>
<path opacity="0.2" d="M603.695 3.13343L495.247 65.7465L489.823 62.613L598.272 -3.05176e-05L603.695 3.13343Z" fill="white"/>
<path d="M489.823 68.8799V62.613L495.247 65.7465L489.823 68.8799Z" fill="#FB9119"/>
<path opacity="0.2" d="M489.823 68.8799V62.613L495.247 65.7465L489.823 68.8799Z" fill="black"/>
<path opacity="0.2" d="M495.247 65.7465L565.082 84.9126V219.525L544.047 231.665V93.9195L495.247 65.7465Z" fill="black"/>
</svg>
