<svg width="32" height="33" viewBox="0 0 32 33" fill="none" xmlns="http://www.w3.org/2000/svg">
<path d="M8 13.5963C9.06667 9.32962 11.7333 7.19629 16 7.19629C22.4 7.19629 23.2 11.9963 26.4 12.7963C28.5333 13.3296 30.4 12.5296 32 10.3963C30.9333 14.663 28.2667 16.7963 24 16.7963C17.6 16.7963 16.8 11.9963 13.6 11.1963C11.4667 10.663 9.6 11.463 8 13.5963ZM0 23.1963C1.06667 18.9296 3.73333 16.7963 8 16.7963C14.4 16.7963 15.2 21.5963 18.4 22.3963C20.5333 22.9296 22.4 22.1296 24 19.9963C22.9333 24.263 20.2667 26.3963 16 26.3963C9.6 26.3963 8.8 21.5963 5.6 20.7963C3.46667 20.263 1.6 21.063 0 23.1963Z" fill="#FCFCFC"/>
</svg>
